<?xml version="1.0" standalone="no"?>
<!DOCTYPE svg PUBLIC "-//W3C//DTD SVG 20010904//EN"
 "http://www.w3.org/TR/2001/REC-SVG-20010904/DTD/svg10.dtd">
<svg version="1.0" xmlns="http://www.w3.org/2000/svg"
 width="1280.000000pt" height="720.000000pt" viewBox="0 0 1280.000000 720.000000"
 preserveAspectRatio="xMidYMid meet">

<g transform="translate(0.000000,720.000000) scale(0.100000,-0.100000)"
fill="#000000" stroke="none">
<path d="M0 7040 c0 -100 4 -160 10 -160 6 0 10 18 10 40 0 22 3 40 8 40 7 0
30 78 37 125 1 11 3 23 4 28 0 4 9 7 19 7 13 0 14 2 4 9 -17 10 6 21 46 21 25
0 25 1 6 15 -18 13 -16 14 26 15 73 1 215 12 219 16 2 2 -84 4 -192 4 l-197 0
0 -160z"/>
<path d="M9123 7188 c15 -5 26 -15 24 -21 -5 -13 18 -63 38 -87 7 -8 15 -28
17 -45 l4 -30 13 27 c13 25 15 26 37 11 17 -11 28 -12 37 -5 7 6 22 9 32 7 11
-2 25 -4 31 -4 6 -1 10 -11 10 -23 -1 -17 6 -23 34 -29 19 -4 36 -12 38 -18 3
-8 10 -8 24 0 24 13 38 -1 38 -38 0 -13 5 -23 10 -23 6 0 10 -7 10 -16 0 -9
-5 -12 -12 -8 -6 4 -8 3 -4 -4 3 -6 20 -13 36 -17 17 -4 30 -11 30 -16 0 -6 5
-7 10 -4 6 3 10 1 10 -5 0 -6 4 -9 9 -6 4 3 19 -6 31 -19 13 -14 28 -25 34
-25 13 0 28 -35 46 -102 7 -27 16 -48 20 -48 4 0 13 -18 20 -40 7 -22 19 -40
26 -40 7 0 15 -18 19 -40 4 -22 10 -40 14 -40 4 0 13 -28 20 -62 8 -35 16 -67
19 -73 3 -5 7 -30 8 -54 1 -25 7 -47 13 -49 14 -5 16 -322 1 -322 -5 0 -10
-22 -10 -49 0 -32 -5 -53 -16 -62 -10 -8 -14 -22 -11 -38 3 -13 -4 -43 -14
-65 -10 -23 -23 -60 -29 -82 -6 -26 -20 -48 -35 -58 -15 -10 -25 -26 -25 -39
0 -47 -86 -167 -120 -167 -5 0 -10 -5 -10 -11 0 -14 -55 -69 -69 -69 -6 0 -11
-6 -11 -13 0 -6 -13 -18 -30 -25 -16 -7 -46 -29 -67 -47 -21 -19 -45 -35 -54
-35 -9 0 -28 -9 -42 -20 -30 -24 -53 -26 -61 -5 -9 24 -21 17 -31 -17 -6 -18
-14 -33 -20 -34 -17 -1 -99 -25 -117 -35 -10 -5 -29 -9 -43 -9 -14 0 -42 -8
-63 -19 -25 -12 -102 -26 -234 -42 -109 -12 -198 -26 -198 -30 0 -4 -37 -10
-82 -13 -140 -11 -158 -15 -158 -37 0 -10 -6 -19 -14 -19 -17 0 -36 -23 -41
-47 -2 -10 -4 -20 -5 -23 0 -3 -10 -16 -21 -29 l-20 -25 -25 27 c-14 15 -29
27 -35 27 -6 0 -8 9 -4 20 8 24 -9 58 -20 41 -5 -9 -11 -9 -23 1 -14 11 -14
10 1 -11 13 -20 14 -28 4 -40 -10 -12 -9 -14 4 -9 9 4 23 -1 32 -10 8 -10 23
-24 33 -31 13 -11 14 -16 5 -19 -8 -3 -16 -1 -20 4 -3 5 -15 16 -25 24 -18 14
-19 14 -7 -8 7 -13 19 -26 26 -28 8 -3 17 -14 20 -24 4 -12 12 -17 23 -14 13
5 14 4 3 -4 -10 -8 -3 -25 38 -86 72 -105 75 -125 8 -41 -83 105 -113 137 -70
76 21 -29 53 -74 71 -100 86 -120 108 -163 96 -183 -16 -26 -148 121 -190 213
-19 41 -39 66 -71 88 -24 17 -48 29 -54 26 -5 -4 -9 0 -9 8 0 8 -7 18 -16 21
-9 3 -12 2 -9 -5 4 -5 -1 -26 -10 -45 l-17 -36 53 -86 c29 -48 58 -93 65 -100
39 -38 85 -101 221 -302 13 -19 23 -43 21 -55 -1 -11 1 -25 4 -31 4 -6 6 -56
5 -111 -2 -83 -5 -105 -21 -122 -16 -18 -17 -25 -8 -44 21 -39 29 -113 21
-177 -11 -76 -12 -77 -60 -97 -21 -8 -39 -19 -39 -24 0 -5 -9 -9 -19 -9 -11 0
-21 -9 -24 -22 -4 -16 -14 -23 -31 -24 -22 -2 -24 1 -16 16 14 26 13 30 -10
30 -11 0 -20 -7 -20 -15 0 -11 -8 -13 -30 -9 -18 4 -36 1 -46 -7 -13 -10 -17
-10 -25 2 -5 8 -9 20 -9 27 0 15 -22 16 -38 0 -7 -7 -12 -9 -12 -5 0 4 -9 -2
-21 -14 -24 -24 -40 -21 -54 8 -7 18 -43 43 -60 43 -2 0 -15 -22 -28 -50 l-24
-49 32 -31 c17 -16 36 -30 43 -30 6 0 21 -10 33 -22 21 -22 21 -22 33 -4 18
32 62 76 69 70 3 -3 28 -7 56 -9 38 -2 54 2 60 13 6 10 10 11 15 3 10 -15 86
-14 86 1 0 7 17 -6 38 -29 20 -23 46 -43 57 -45 16 -2 21 -12 23 -46 2 -23 -1
-42 -6 -42 -6 0 -29 -16 -52 -35 -44 -37 -88 -54 -99 -38 -3 5 -53 8 -111 8
-64 -1 -117 4 -137 12 -26 10 -33 10 -44 -3 -8 -10 -15 -12 -23 -4 -7 7 -22
-1 -48 -27 -37 -36 -40 -37 -66 -23 -18 11 -28 25 -30 45 -5 52 -12 76 -22 70
-6 -3 -10 -19 -10 -34 0 -15 -8 -38 -19 -49 -19 -23 -41 -29 -41 -12 0 5 -3 9
-7 9 -33 -5 -43 4 -59 57 -15 53 -17 55 -34 39 -11 -10 -22 -31 -25 -49 -13
-61 -16 -66 -44 -66 -15 0 -36 6 -47 14 -19 15 -23 79 -23 375 0 40 -4 71 -8
69 -4 -3 -23 -11 -40 -18 -18 -8 -33 -20 -33 -27 0 -8 13 -13 33 -13 24 0 28
-3 17 -10 -8 -5 -11 -10 -7 -10 14 0 -78 -88 -99 -94 -11 -3 -29 0 -40 8 -18
13 -19 25 -16 163 l3 148 -28 32 c-18 20 -36 31 -52 30 -22 -2 -26 -9 -38 -67
-19 -91 -26 -221 -15 -262 13 -47 -7 -155 -33 -174 -17 -13 -22 -11 -45 11
-35 34 -44 22 -59 -75 -31 -205 -39 -320 -22 -320 22 0 19 -46 -4 -80 -14 -20
-25 -41 -25 -48 0 -7 -6 -12 -14 -12 -15 0 -26 -42 -26 -104 0 -22 -7 -54 -15
-70 -11 -20 -17 -72 -20 -179 -4 -119 -8 -154 -20 -166 -25 -25 -36 4 -29 75
8 76 -5 316 -16 309 -5 -3 -3 7 5 22 25 52 29 92 9 100 -16 6 -95 -15 -160
-42 -38 -16 -41 -30 -43 -180 -2 -117 -16 -284 -25 -293 -3 -3 -2 -10 3 -16
14 -19 20 -56 9 -62 -6 -4 -8 -31 -4 -68 6 -73 -20 -210 -36 -183 -5 9 -12 55
-15 102 -5 66 -9 85 -21 85 -11 0 -12 -3 -4 -13 16 -19 3 -86 -19 -98 -17 -9
-19 -5 -19 45 0 39 -4 55 -15 60 -36 13 9 86 53 86 26 0 34 33 26 103 -4 35
-2 62 6 76 15 29 17 201 3 201 -12 -1 -121 -240 -134 -295 -6 -27 -18 -57 -25
-65 -7 -9 -20 -35 -28 -58 l-15 -42 32 3 c23 1 32 -3 35 -15 3 -14 -3 -18 -23
-18 -14 0 -28 -7 -31 -15 -4 -8 -12 -15 -20 -15 -21 0 -31 -29 -39 -112 -4
-43 -11 -80 -15 -83 -14 -9 -30 31 -30 75 0 24 -5 43 -13 46 -7 2 -75 -21
-151 -52 -109 -45 -140 -62 -147 -81 -5 -13 -10 -95 -10 -181 -2 -202 -12
-255 -22 -108 -4 60 -7 149 -7 198 0 83 -2 91 -32 138 -18 27 -38 50 -43 50
-6 0 -16 14 -22 30 -6 17 -18 30 -26 30 -8 0 -18 12 -21 26 -4 14 -18 38 -31
52 l-25 27 -1 -35 c-1 -19 -3 -91 -5 -160 -2 -69 -4 -135 -4 -147 0 -14 -9
-24 -28 -31 -28 -9 -28 -9 -25 24 1 19 5 39 9 45 4 8 0 7 -14 0 -13 -7 -19
-17 -16 -26 7 -18 -16 -73 -33 -80 -7 -2 -13 1 -13 8 0 7 -2 139 -4 295 -2
155 -6 285 -10 289 -3 3 -9 3 -13 -1 -5 -4 -11 -265 -14 -579 -7 -635 -7 -612
-15 -605 -3 3 -8 136 -11 294 -3 159 -6 290 -7 291 -1 1 -7 -2 -15 -6 -8 -6
-12 -32 -12 -85 0 -72 -1 -76 -17 -60 -12 13 -13 19 -4 22 6 2 12 13 12 23 0
11 -4 18 -8 15 -4 -2 -14 -1 -22 5 -10 6 -11 9 -2 9 6 0 12 5 12 10 0 14 -16
12 -33 -4 -8 -8 -19 -11 -27 -6 -10 6 -10 9 1 14 16 7 -35 1 -71 -9 -24 -6
-24 -6 -6 9 10 8 24 17 30 20 7 3 7 8 -3 14 -9 7 -10 12 -2 16 6 4 11 25 11
47 0 40 6 45 53 41 9 -1 17 3 17 8 0 5 14 16 30 25 l30 16 0 -52 c0 -36 4 -49
13 -47 14 5 23 518 9 596 -9 55 -3 55 -144 11 l-97 -30 0 -367 c-1 -205 -5
-368 -10 -370 -5 -2 -7 -13 -4 -25 4 -18 3 -19 -6 -7 -8 12 -11 7 -11 -22 0
-20 5 -38 12 -40 9 -3 8 -9 -5 -22 -16 -17 -17 -15 -17 28 0 34 -4 46 -15 46
-8 0 -15 -7 -15 -15 0 -17 -16 -20 -25 -5 -10 16 -24 2 -18 -19 3 -10 0 -22
-6 -26 -6 -3 -11 -3 -10 2 3 10 -12 46 -22 53 -11 8 -13 62 -3 90 8 21 10 162
4 365 l-1 40 -15 -30 c-12 -26 -14 -27 -9 -5 3 14 8 42 11 64 7 37 6 38 -15
27 -21 -11 -21 -17 -21 -238 l0 -226 27 24 27 24 -20 -27 c-13 -16 -21 -44
-22 -73 -1 -26 -4 -51 -7 -55 -3 -5 -5 -215 -4 -450 0 -8 -2 -24 -5 -35 -2
-11 -5 -33 -6 -50 -6 -81 -19 76 -19 234 -1 188 2 179 -53 156 -11 -4 -18 -3
-18 3 0 6 8 12 17 14 14 3 17 12 14 48 -3 53 -4 54 -30 45 -14 -4 -21 -15 -21
-30 0 -18 -4 -23 -15 -19 -10 4 -15 0 -15 -10 0 -14 -2 -15 -14 -4 -8 7 -14
15 -14 18 0 3 0 10 -1 15 -1 6 -2 98 -1 205 0 194 -9 276 -25 236 -5 -11 -46
-86 -92 -168 -46 -83 -83 -153 -83 -158 0 -5 -6 -15 -14 -22 -14 -15 -106
-189 -106 -202 0 -4 15 -5 32 -1 32 6 32 5 13 -10 -11 -9 -32 -19 -46 -22 -16
-3 -32 -16 -39 -32 -16 -35 -41 -924 -33 -1143 l4 -98 4195 0 4194 0 0 2792
c0 2172 -3 2789 -12 2780 -7 -7 -20 -12 -31 -12 -29 0 -20 64 10 68 16 2 23
-3 26 -20 2 -13 5 54 6 149 1 165 0 171 -19 166 -14 -4 -21 1 -26 21 -9 37 2
59 26 53 19 -5 20 0 20 138 0 134 -1 143 -20 148 -14 3 -20 14 -20 32 0 18 6
29 20 32 20 5 20 14 20 429 l0 424 -1375 0 c-952 0 -1375 -3 -1375 -10 0 -14
-51 -59 -68 -60 -7 0 -16 8 -19 18 -4 9 -11 20 -17 25 -7 5 -6 10 4 17 11 7 4
10 -26 10 -40 0 -42 -1 -48 -39 l-6 -39 -30 26 c-28 25 -29 28 -13 39 14 11
-55 13 -358 12 -267 0 -366 -4 -346 -11z m350 -81 c15 14 39 -21 33 -49 -3
-15 -1 -28 4 -28 23 0 8 -29 -20 -39 -16 -5 -30 -6 -30 -2 0 4 -18 16 -40 26
-33 15 -40 23 -40 47 0 24 3 28 19 23 14 -4 23 0 31 15 8 16 15 19 24 11 7 -6
16 -8 19 -4z m969 -754 c10 -9 18 -24 18 -33 0 -14 -9 -18 -45 -18 -55 -1 -63
10 -31 43 30 30 34 30 58 8z m1773 -36 c0 -15 -4 -28 -9 -29 -14 -5 -30 28
-23 46 10 26 32 14 32 -17z m500 12 c8 -26 -16 -54 -39 -46 -16 6 -22 48 -9
60 14 14 42 6 48 -14z m-95 -8 c0 -11 -4 -22 -9 -25 -11 -7 -23 22 -15 35 9
16 24 10 24 -10z m-80 -358 c0 -15 -35 -35 -44 -26 -8 8 -8 48 0 56 9 8 44
-15 44 -30z m161 27 c1 -5 2 -17 2 -25 0 -35 -3 -38 -41 -32 -21 2 -46 1 -54
-4 -12 -7 -17 -3 -22 17 -9 35 -1 44 39 42 19 -1 38 2 42 5 10 11 33 8 34 -3z
m-671 -20 c0 -22 -16 -26 -40 -10 -13 9 -13 11 0 20 24 16 40 12 40 -10z m170
-5 c0 -8 -4 -15 -9 -15 -13 0 -22 16 -14 24 11 11 23 6 23 -9z m496 -358 c4
-14 1 -25 -12 -34 -25 -18 -38 -12 -42 22 -6 46 40 57 54 12z m-486 13 c0 -18
-23 -59 -36 -64 -16 -6 -23 13 -17 47 4 20 11 27 29 27 13 0 24 -4 24 -10z
m397 -28 c2 -14 -2 -22 -11 -22 -19 0 -29 17 -22 36 8 22 28 13 33 -14z
m-1754 -281 c11 -11 14 -67 5 -77 -10 -9 -107 -16 -133 -10 -16 4 -24 15 -27
36 -7 46 27 69 93 65 28 -2 56 -8 62 -14z m-416 -27 c8 -21 -13 -42 -28 -27
-13 13 -5 43 11 43 6 0 13 -7 17 -16z m1576 -30 c-4 -10 -9 -12 -15 -6 -12 12
-1 35 12 27 5 -3 6 -13 3 -21z m184 18 c18 -11 4 -52 -17 -52 -17 0 -34 36
-24 52 6 10 25 10 41 0z m489 -14 c9 -30 -11 -43 -66 -44 -40 -1 -51 3 -56 18
-9 30 12 45 65 45 42 1 51 -2 57 -19z m92 -16 c3 -26 0 -32 -17 -32 -26 0 -34
15 -27 46 10 37 40 28 44 -14z m-833 -2 c-5 -8 -11 -8 -17 -2 -6 6 -7 16 -3
22 5 8 11 8 17 2 6 -6 7 -16 3 -22z m155 10 c0 -5 -4 -10 -10 -10 -5 0 -10 5
-10 10 0 6 5 10 10 10 6 0 10 -4 10 -10z m-1316 -279 c3 -4 23 -11 44 -15 35
-5 39 -9 40 -36 0 -22 -6 -35 -23 -46 -24 -16 -65 -12 -65 6 0 6 -11 5 -26 0
-34 -13 -44 -6 -44 34 0 23 7 38 23 49 25 18 43 21 51 8z m-334 -15 c0 -11
-19 -15 -25 -6 -3 5 1 10 9 10 9 0 16 -2 16 -4z m1740 -42 c0 -13 -21 -44 -30
-44 -6 0 -10 11 -10 25 0 18 5 25 20 25 11 0 20 -3 20 -6z m405 -4 c8 -13 -5
-60 -18 -60 -20 0 -45 31 -40 51 6 20 47 27 58 9z m83 -19 c4 -25 -12 -41 -40
-41 -13 0 -18 8 -18 28 0 35 8 44 35 40 12 -2 21 -12 23 -27z m87 -6 c0 -23
-4 -30 -20 -30 -21 0 -31 25 -21 51 11 28 41 12 41 -21z m-819 -2 c-10 -10
-19 5 -10 18 6 11 8 11 12 0 2 -7 1 -15 -2 -18z m-2532 -19 c9 -3 16 -15 16
-25 0 -16 -8 -19 -49 -19 -28 0 -53 -4 -56 -10 -11 -18 -54 -11 -66 11 -15 29
4 41 56 35 22 -3 49 -1 60 4 11 5 21 9 22 9 1 1 8 -2 17 -5z m-1264 -20 c0 -8
-5 -12 -10 -9 -6 4 -8 11 -5 16 9 14 15 11 15 -7z m126 -69 c-3 -9 0 -15 10
-15 12 0 13 -4 4 -21 -11 -20 -12 -20 -26 -2 -12 16 -15 16 -24 3 -6 -10 -10
-11 -10 -2 0 12 35 52 46 52 3 0 4 -7 0 -15z m124 -30 c29 -31 20 -42 -35 -45
-75 -5 -85 8 -37 47 35 29 43 28 72 -2z m1018 -53 c2 -7 -2 -10 -12 -6 -9 3
-16 11 -16 16 0 13 23 5 28 -10z m-358 -21 c0 -4 -5 -12 -12 -19 -8 -8 -9 -12
-1 -12 6 0 14 6 16 13 4 9 8 8 16 -3 18 -25 13 -30 -30 -30 -28 0 -46 6 -55
18 -23 29 -16 40 26 40 22 0 40 -3 40 -7z m-161 -18 c9 -17 11 -17 25 2 14 20
15 20 40 -4 15 -14 23 -28 19 -32 -8 -8 -96 -21 -148 -22 -33 -1 -75 29 -75
52 0 10 13 2 37 -20 34 -32 35 -30 16 17 -5 14 -1 16 21 12 14 -3 29 -1 32 3
8 14 22 10 33 -8z m3759 -85 c20 -20 14 -55 -10 -61 -12 -3 -25 -4 -30 -1 -6
4 -5 47 1 72 2 7 29 0 39 -10z m-81 -14 c3 -8 -1 -23 -10 -32 -15 -14 -17 -14
-23 1 -8 21 1 47 16 47 6 0 13 -7 17 -16z m183 -20 c0 -31 -3 -35 -22 -32 -39
5 -37 68 2 68 16 0 20 -6 20 -36z m-3769 -137 c29 -40 62 -80 72 -89 15 -14
17 -19 6 -22 -11 -4 -404 -56 -422 -56 -3 0 -37 43 -76 95 -46 62 -67 97 -59
100 23 8 403 51 415 47 6 -2 35 -36 64 -75z m189 -97 c-8 -5 -33 -9 -55 -9
l-40 2 35 7 c19 4 44 8 55 9 16 0 17 -1 5 -9z m128 -64 c9 -8 12 -19 8 -23 -4
-4 -14 1 -22 11 -8 11 -15 17 -15 13 -1 -4 -2 -11 -3 -17 0 -5 -4 -10 -8 -10
-10 0 -47 37 -42 42 9 10 68 -2 82 -16z m42 14 c0 -5 -2 -10 -4 -10 -3 0 -8 5
-11 10 -3 6 -1 10 4 10 6 0 11 -4 11 -10z m-146 -16 c9 -8 16 -19 16 -24 0
-14 -18 -21 -25 -10 -5 8 -11 8 -20 0 -10 -8 -19 -8 -34 0 -30 15 -26 38 7 43
15 2 30 5 34 6 4 0 14 -6 22 -15z m2792 -2 c7 -4 14 -20 15 -37 4 -28 2 -30
-26 -27 -16 1 -38 2 -48 3 -20 0 -18 4 22 52 16 19 21 20 37 9z m99 -37 c0
-21 -5 -31 -19 -33 -26 -5 -38 11 -30 42 5 20 12 26 28 24 16 -2 21 -10 21
-33z m86 25 c13 0 8 -42 -6 -52 -19 -15 -43 -8 -48 14 -7 26 10 51 30 43 8 -3
19 -5 24 -5z m389 0 c20 -13 19 -52 -2 -68 -14 -10 -21 -10 -38 0 -24 15 -26
41 -4 62 18 18 23 19 44 6z m84 -9 c26 -28 4 -70 -36 -71 -14 0 -18 8 -18 33
0 30 14 57 30 57 4 0 14 -8 24 -19z m-2493 -14 c-13 -13 -26 -3 -16 12 3 6 11
8 17 5 6 -4 6 -10 -1 -17z m2583 7 c20 -19 20 -38 1 -54 -22 -19 -45 -5 -45
28 0 44 17 54 44 26z m-2434 -24 c8 -5 11 -12 8 -16 -10 -9 -38 3 -38 16 0 12
10 13 30 0z m2246 -291 c4 -7 21 -9 43 -5 48 7 63 -4 59 -44 -2 -27 -9 -35
-32 -43 -21 -7 -31 -7 -34 1 -2 8 -11 8 -28 1 -38 -14 -41 -12 -54 27 -10 30
-9 38 6 55 20 22 30 24 40 8z m194 -55 c0 -38 -21 -54 -49 -37 -23 14 -25 40
-6 69 23 35 55 17 55 -32z m-600 5 c0 -33 -3 -40 -17 -37 -30 6 -22 78 8 78 5
0 9 -18 9 -41z m-2689 19 c1 -7 1 -16 0 -20 -1 -8 47 -3 56 6 3 3 1 6 -5 6 -7
0 -12 5 -12 12 0 6 11 1 24 -11 l24 -23 7 21 c6 20 25 30 25 13 0 -19 -36 -41
-58 -35 -14 3 -22 1 -22 -7 0 -7 -8 -9 -22 -4 -28 8 -24 4 -32 32 -5 13 -3 22
3 22 6 0 12 -6 12 -12z m-215 -45 c-7 -7 -26 7 -26 19 0 6 6 6 15 -2 9 -7 13
-15 11 -17z m108 11 c3 -8 2 -12 -4 -9 -6 3 -10 10 -10 16 0 14 7 11 14 -7z
m246 6 c0 -5 -5 -10 -11 -10 -5 0 -7 5 -4 10 3 6 8 10 11 10 2 0 4 -4 4 -10z
m-395 -19 l35 -18 -22 -19 c-19 -17 -21 -17 -15 -1 4 9 2 17 -3 17 -6 0 -10
-5 -10 -11 0 -7 -9 0 -20 14 -34 43 -22 49 35 18z m92 -6 c-15 -16 -22 -11
-13 10 3 9 10 13 16 10 6 -4 5 -11 -3 -20z m-182 -37 c-18 -11 -35 -2 -35 17
0 12 5 12 25 3 22 -10 23 -13 10 -20z m215 22 c0 -5 -5 -10 -11 -10 -5 0 -7 5
-4 10 3 6 8 10 11 10 2 0 4 -4 4 -10z m352 -42 c-7 -7 -12 -8 -12 -2 0 14 12
26 19 19 2 -3 -1 -11 -7 -17z m263 12 c3 -5 2 -10 -4 -10 -5 0 -13 5 -16 10
-3 6 -2 10 4 10 5 0 13 -4 16 -10z m-375 -20 c0 -5 -5 -10 -11 -10 -5 0 -7 5
-4 10 3 6 8 10 11 10 2 0 4 -4 4 -10z m84 -17 c16 -21 16 -25 4 -21 -9 4 -25
0 -37 -8 -18 -13 -20 -13 -15 1 3 8 12 15 20 15 8 0 14 5 14 10 0 6 -4 10 -10
10 -5 0 -10 5 -10 10 0 17 14 10 34 -17z m71 17 c3 -5 1 -10 -4 -10 -6 0 -11
5 -11 10 0 6 2 10 4 10 3 0 8 -4 11 -10z m-212 -17 c-5 -12 -2 -15 10 -10 11
4 14 2 10 -9 -4 -11 -9 -12 -19 -3 -16 13 -19 39 -4 39 5 0 6 -8 3 -17z m-45
-13 c12 -19 11 -20 -8 -8 -20 13 -27 28 -12 28 4 0 13 -9 20 -20z m272 0 c0
-5 -5 -10 -11 -10 -5 0 -7 5 -4 10 3 6 8 10 11 10 2 0 4 -4 4 -10z m-565 -50
c10 -11 14 -20 9 -20 -5 0 -15 9 -22 20 -7 11 -11 20 -9 20 2 0 12 -9 22 -20z
m1035 0 c0 -5 -2 -10 -4 -10 -3 0 -8 5 -11 10 -3 6 -1 10 4 10 6 0 11 -4 11
-10z m-350 -30 c0 -5 -4 -10 -10 -10 -5 0 -10 5 -10 10 0 6 5 10 10 10 6 0 10
-4 10 -10z m220 0 c0 -5 -2 -10 -4 -10 -3 0 -8 5 -11 10 -3 6 -1 10 4 10 6 0
11 -4 11 -10z m-241 -49 c-2 -6 -10 2 -17 17 -11 25 -11 25 4 10 9 -9 15 -21
13 -27z m-154 19 c3 -5 1 -10 -4 -10 -6 0 -11 5 -11 10 0 6 2 10 4 10 3 0 8
-4 11 -10z m200 0 c3 -6 -4 -10 -17 -10 -18 0 -20 2 -8 10 19 12 18 12 25 0z
m-256 -45 c0 -5 -6 -1 -14 9 -8 11 -15 24 -15 30 0 5 7 1 15 -10 8 -10 14 -23
14 -29z m-64 25 c3 -6 -1 -7 -9 -4 -18 7 -21 14 -7 14 6 0 13 -4 16 -10z m155
-21 c0 -6 -4 -7 -10 -4 -5 3 -10 11 -10 16 0 6 5 7 10 4 6 -3 10 -11 10 -16z
m50 6 c0 -8 -4 -15 -10 -15 -5 0 -7 7 -4 15 4 8 8 15 10 15 2 0 4 -7 4 -15z
m-94 -10 c-8 -8 -18 -15 -22 -15 -3 0 -1 7 6 15 7 8 17 15 22 15 5 0 3 -7 -6
-15z m2444 -45 c0 -11 -4 -20 -10 -20 -5 0 -10 9 -10 20 0 11 5 20 10 20 6 0
10 -9 10 -20z m358 -12 c2 -9 -4 -18 -13 -21 -11 -5 -15 0 -15 19 0 28 23 29
28 2z m82 7 c0 -18 -22 -55 -30 -50 -11 7 -14 48 -4 58 6 5 34 -1 34 -8z m68
3 c18 -18 16 -44 -2 -29 -11 9 -14 8 -12 -6 0 -12 -7 -19 -21 -21 -20 -3 -23
1 -23 32 0 31 3 36 23 36 13 0 28 -5 35 -12z m92 -24 c0 -28 -3 -35 -17 -32
-25 5 -29 39 -7 55 24 18 24 18 24 -23z m-180 -339 c0 -16 -6 -25 -15 -25 -9
0 -15 9 -15 25 0 16 6 25 15 25 9 0 15 -9 15 -25z m100 4 c0 -5 -4 -9 -10 -9
-5 0 -10 7 -10 16 0 8 5 12 10 9 6 -3 10 -10 10 -16z m-43 -11 c-3 -8 -6 -5
-6 6 -1 11 2 17 5 13 3 -3 4 -12 1 -19z m103 2 c0 -11 -4 -20 -10 -20 -5 0
-10 9 -10 20 0 11 5 20 10 20 6 0 10 -9 10 -20z m-5654 -182 c3 -4 1 -23 -6
-42 -8 -25 -18 -36 -31 -36 -19 0 -24 14 -19 55 3 29 36 43 56 23z m2056 -41
c-12 -7 -19 -16 -16 -20 4 -4 0 -7 -9 -7 -9 0 -17 -5 -17 -11 0 -5 4 -8 10 -4
5 3 25 -11 44 -32 38 -40 45 -59 21 -49 -18 6 -19 2 -4 -26 9 -16 8 -19 -3
-12 -7 5 -21 10 -31 11 -23 4 -69 33 -84 54 -17 22 -70 41 -79 28 -4 -6 -15
-2 -28 10 -17 16 -25 18 -34 9 -8 -8 -12 -8 -12 -1 0 25 56 47 124 50 38 2 72
5 74 8 3 3 19 5 36 5 30 -1 31 -1 8 -13z m348 -222 c0 -10 10 -15 30 -15 22 0
28 -4 24 -15 -4 -10 0 -15 15 -15 13 0 26 -11 36 -30 9 -16 19 -30 24 -30 12
0 64 -70 57 -77 -3 -3 -13 0 -22 8 -16 13 -17 12 -12 -8 4 -16 2 -20 -8 -16
-8 3 -14 -1 -14 -11 0 -9 -4 -16 -10 -16 -5 0 -10 5 -10 10 0 16 -39 50 -45
40 -8 -13 2 -59 16 -76 10 -12 8 -18 -9 -30 -12 -8 -22 -24 -22 -36 0 -19 4
-20 55 -14 36 4 55 2 55 -4 0 -6 -7 -13 -15 -16 -9 -4 -14 -14 -13 -23 2 -10
-4 -16 -17 -17 -37 -2 -41 -4 -59 -35 -16 -27 -22 -29 -49 -23 -43 9 -44 10
-17 39 l23 25 -29 0 c-39 0 -65 37 -39 56 15 11 15 13 -7 25 -13 7 -26 12 -29
11 -9 -2 1 40 13 55 7 8 -1 11 -29 10 -34 -2 -38 1 -41 23 -2 21 5 28 45 47
53 24 63 22 63 -13 0 -19 5 -24 24 -24 15 0 26 7 29 19 4 16 -1 21 -22 23 -18
2 -27 10 -29 25 -2 12 -13 24 -25 27 -22 6 -74 72 -64 82 3 3 24 0 46 -7 32
-9 44 -10 53 -1 9 9 7 12 -10 12 -13 0 -22 6 -22 15 0 10 10 15 30 15 20 0 30
-5 30 -15z m183 -235 c-5 -19 -23 -29 -23 -12 0 7 20 32 26 32 1 0 0 -9 -3
-20z m-1 -168 c-1 -9 6 -10 23 -6 49 12 24 -14 -35 -36 -33 -12 -65 -28 -71
-36 -13 -16 -42 -19 -37 -4 2 5 21 30 43 55 27 30 47 44 60 42 11 -1 19 -8 17
-15z m8 -92 c-14 -27 -60 -51 -60 -32 0 14 40 52 56 52 12 0 12 -4 4 -20z
m-4289 -74 c-6 -8 -24 -16 -39 -18 -15 -3 -36 -9 -47 -13 -12 -5 -17 -4 -12 1
8 9 84 41 101 43 5 1 3 -5 -3 -13z m2369 -99 c25 -1 55 2 67 7 17 7 28 5 41
-7 10 -10 22 -17 26 -17 17 0 34 -27 25 -41 -5 -8 -6 -21 -3 -30 5 -19 -18
-47 -50 -58 -38 -15 -179 -12 -211 3 -16 8 -38 17 -47 20 -24 7 -51 63 -44 93
9 32 40 44 101 38 28 -3 70 -7 95 -8z m2056 -63 c-3 -9 -6 -22 -6 -30 0 -9 -4
-12 -10 -9 -5 3 -10 -1 -10 -9 0 -9 -4 -16 -10 -16 -15 0 -12 14 8 49 18 32
39 43 28 15z m40 -30 c-4 -11 -2 -15 7 -11 8 3 20 1 28 -4 12 -7 12 -9 -1 -10
-8 -1 -20 -1 -26 0 -6 1 -10 -7 -9 -16 1 -22 24 -63 25 -45 0 7 13 12 30 12
32 0 35 -8 31 -79 -2 -22 1 -31 8 -27 6 4 11 0 11 -8 0 -8 -4 -18 -10 -21 -5
-3 -10 -13 -10 -22 0 -9 -8 -25 -17 -35 -17 -19 -17 -21 0 -50 10 -17 16 -32
15 -33 -2 -2 -16 -5 -33 -7 -29 -3 -30 -2 -27 37 3 30 1 37 -8 29 -16 -16 -47
-6 -53 17 -3 10 0 19 6 19 6 0 8 2 5 5 -11 11 -36 -7 -42 -31 -4 -13 -11 -24
-16 -24 -14 0 -22 19 -13 33 4 6 13 31 19 55 9 35 8 42 -3 42 -8 0 -12 -4 -9
-9 3 -4 -6 -19 -21 -32 l-26 -24 7 29 c9 35 55 98 67 90 5 -3 9 -15 9 -27 1
-22 1 -22 15 -3 20 26 19 46 -2 46 -9 0 -13 3 -10 7 4 3 2 12 -4 20 -9 10 -6
19 15 38 14 13 26 31 26 40 0 8 5 15 11 15 6 0 8 -7 5 -16z m-82 -60 c9 -23 8
-24 -13 -24 -14 0 -18 5 -14 20 6 24 19 26 27 4z m-3954 -12 c0 -10 -22 -32
-32 -32 -4 0 -8 9 -8 20 0 13 7 20 20 20 11 0 20 -4 20 -8z m3855 -21 c-3 -6
-11 -11 -17 -11 -6 0 -6 6 2 15 14 17 26 13 15 -4z m-3935 -20 c0 -10 -30 -24
-37 -17 -3 3 -2 9 2 15 8 13 35 15 35 2z m-410 -216 c10 -12 10 -15 -4 -15 -9
0 -16 7 -16 15 0 8 2 15 4 15 2 0 9 -7 16 -15z m4455 -13 c-3 -3 -11 0 -18 7
-9 10 -8 11 6 5 10 -3 15 -9 12 -12z m-4845 -194 c0 -49 -5 -47 -14 5 -4 23
-3 37 4 37 5 0 10 -19 10 -42z m-154 -3 c-11 -8 -25 -15 -30 -15 -6 0 -2 7 8
15 11 8 25 15 30 15 6 0 2 -7 -8 -15z m114 -35 c0 -5 -5 -10 -11 -10 -5 0 -7
5 -4 10 3 6 8 10 11 10 2 0 4 -4 4 -10z m-220 -15 c-7 -8 -22 -15 -34 -15 -21
1 -21 1 -2 15 27 21 53 20 36 0z m720 -53 c0 -8 -71 -52 -84 -52 -28 0 29 41
82 59 1 1 2 -3 2 -7z m4587 -18 c-3 -3 -12 -4 -19 -1 -8 3 -5 6 6 6 11 1 17
-2 13 -5z m46 -71 c-10 -3 -10 -7 0 -18 8 -8 16 -10 24 -4 16 14 27 -9 13 -26
-9 -11 -9 -19 -2 -28 9 -10 8 -19 -3 -34 -12 -16 -12 -22 -3 -25 8 -3 4 -10
-10 -17 -28 -15 -62 -48 -62 -59 0 -14 -51 -33 -71 -27 -22 7 -28 32 -17 64 7
18 5 22 -6 18 -20 -8 -28 19 -11 37 8 8 15 20 15 27 0 7 10 10 29 6 27 -6 41
5 41 32 0 14 -48 10 -54 -4 -3 -8 -12 -15 -20 -15 -8 0 -17 -6 -20 -12 -3 -7
-3 -2 0 12 8 33 35 62 51 56 7 -3 13 -1 13 4 0 5 15 11 33 13 48 6 74 6 60 0z"/>
<path d="M9395 7050 c-3 -5 1 -10 9 -10 9 0 16 5 16 10 0 6 -4 10 -9 10 -6 0
-13 -4 -16 -10z"/>
<path d="M9170 3811 c0 -5 5 -13 10 -16 6 -3 10 -2 10 4 0 5 -4 13 -10 16 -5
3 -10 2 -10 -4z"/>
<path d="M9320 2500 c0 -5 5 -10 10 -10 6 0 10 5 10 10 0 6 -4 10 -10 10 -5 0
-10 -4 -10 -10z"/>
<path d="M9945 1170 c3 -5 13 -10 21 -10 8 0 14 5 14 10 0 6 -9 10 -21 10 -11
0 -17 -4 -14 -10z"/>
<path d="M1492 7178 c-16 -16 -15 -31 5 -92 38 -117 44 -127 58 -83 6 19 8 19
12 5 2 -10 9 -18 15 -18 6 0 8 -9 5 -19 -3 -13 0 -18 7 -15 16 6 -34 212 -55
225 -19 12 -33 11 -47 -3z"/>
<path d="M1561 6894 c0 -11 3 -14 6 -6 3 7 2 16 -1 19 -3 4 -6 -2 -5 -13z"/>
<path d="M1363 6843 c-7 -2 -12 -19 -12 -36 1 -18 3 -25 6 -15 5 18 30 31 44
22 13 -8 11 10 -3 24 -13 13 -16 13 -35 5z"/>
<path d="M494 6538 c-7 -24 5 -38 70 -85 28 -21 53 -40 56 -43 3 -3 20 -16 37
-29 24 -16 31 -18 27 -7 -3 9 -10 16 -16 16 -5 0 -6 5 -3 10 3 6 -1 10 -9 10
-8 0 -14 8 -13 19 1 19 2 19 29 0 20 -15 26 -16 22 -5 -3 8 -12 17 -21 20 -8
4 -13 13 -9 21 7 18 -5 19 -23 3 -11 -10 -13 -10 -7 0 5 8 0 12 -13 12 -10 0
-21 -6 -24 -12 -2 -7 -8 -9 -13 -5 -5 4 -2 12 5 17 8 4 12 17 8 29 -4 16 0 21
13 21 10 0 20 -9 23 -20 4 -17 13 -20 59 -19 29 1 44 4 33 6 -11 3 -27 11 -35
18 -8 7 -24 15 -35 18 -11 2 7 6 40 7 l60 3 -60 8 c-33 4 -90 8 -127 7 -57 0
-68 -3 -74 -20z m179 -35 c-7 -2 -19 -2 -25 0 -7 3 -2 5 12 5 14 0 19 -2 13
-5z m-53 -63 c0 -5 -2 -10 -4 -10 -3 0 -8 5 -11 10 -3 6 -1 10 4 10 6 0 11 -4
11 -10z"/>
<path d="M2683 6512 c-29 -2 -53 -7 -53 -12 0 -4 9 -6 20 -3 11 3 28 2 37 -3
10 -4 23 -8 28 -8 6 -1 12 -17 16 -36 l5 -35 6 45 c3 25 2 47 -1 50 -3 3 -30
4 -58 2z"/>
<path d="M3178 6513 l-48 -4 6 -42 c6 -54 11 -57 19 -13 4 20 11 33 16 30 5
-3 9 0 9 5 0 6 16 11 36 11 21 0 33 4 29 10 -3 6 -9 9 -13 8 -4 -1 -28 -3 -54
-5z"/>
<path d="M4150 6510 c0 -9 21 -48 37 -70 2 -2 15 9 29 25 14 17 23 25 20 18
-4 -7 1 -9 15 -6 16 5 18 8 7 15 -8 6 3 7 32 4 l45 -6 -30 15 c-35 16 -155 20
-155 5z"/>
<path d="M2580 6501 c0 -5 9 -7 20 -4 11 3 20 7 20 9 0 2 -9 4 -20 4 -11 0
-20 -4 -20 -9z"/>
<path d="M3270 6506 c0 -2 7 -9 15 -16 12 -10 15 -10 15 4 0 9 -7 16 -15 16
-8 0 -15 -2 -15 -4z"/>
<path d="M3870 6500 c0 -5 14 -10 32 -10 36 0 35 4 -4 14 -17 4 -28 2 -28 -4z"/>
<path d="M4841 6479 c-14 -42 -14 -42 7 -21 11 9 17 20 15 25 -2 4 14 7 36 7
23 0 41 5 41 10 0 6 -20 10 -44 10 -40 0 -45 -3 -55 -31z"/>
<path d="M4997 6503 c-3 -5 -1 -17 4 -28 4 -11 8 -15 8 -8 1 6 4 18 7 27 6 16
-11 23 -19 9z"/>
<path d="M5990 6446 c0 -19 5 -38 10 -41 6 -3 10 -1 10 4 0 6 9 11 20 11 11 0
20 -4 20 -10 0 -5 4 -10 9 -10 5 0 8 11 5 24 -2 14 0 28 6 31 5 3 10 1 10 -4
0 -6 9 -11 20 -11 11 0 19 -6 18 -12 -2 -7 6 -13 17 -13 15 0 21 8 23 33 l3
32 -85 0 -86 0 0 -34z"/>
<path d="M9237 6473 c-3 -5 1 -42 7 -83 11 -62 13 -69 17 -40 4 31 7 35 29 31
14 -2 36 -4 50 -3 58 1 65 6 71 47 4 22 5 43 2 48 -2 4 -42 7 -88 7 -46 0 -86
-3 -88 -7z"/>
<path d="M3287 6463 c-2 -5 -1 -19 4 -33 7 -23 7 -23 8 8 1 31 -3 40 -12 25z"/>
<path d="M4330 6460 c0 -5 5 -10 11 -10 5 0 7 5 4 10 -3 6 -8 10 -11 10 -2 0
-4 -4 -4 -10z"/>
<path d="M8693 6454 c-57 -28 -66 -65 -54 -217 6 -72 13 -206 17 -297 3 -91 7
-190 8 -220 l2 -55 89 -3 88 -3 -7 62 c-3 34 -6 85 -7 113 -1 55 -2 54 -19
-14 -11 -39 -13 -42 -25 -27 -7 9 -23 17 -36 18 -38 1 -62 14 -65 34 -15 105
-27 264 -28 373 0 167 0 167 117 166 90 -1 127 -5 127 -14 0 -3 9 -11 21 -18
20 -13 19 -11 -4 30 -37 62 -78 88 -141 88 -28 0 -65 -8 -83 -16z"/>
<path d="M6868 6446 c-10 -7 -18 -17 -18 -21 0 -5 8 -1 18 7 9 9 24 18 32 21
13 5 13 5 0 6 -8 0 -23 -6 -32 -13z"/>
<path d="M6000 6349 c0 -11 4 -18 10 -14 5 3 7 12 3 20 -7 21 -13 19 -13 -6z"/>
<path d="M6000 6293 c0 -21 3 -24 9 -14 5 8 7 20 4 28 -8 21 -13 15 -13 -14z"/>
<path d="M9254 6218 c3 -29 8 -106 11 -170 6 -101 4 -118 -9 -118 -8 0 -24 12
-35 26 -16 20 -21 23 -21 10 0 -9 13 -31 29 -48 23 -25 34 -29 55 -24 21 5 26
11 21 25 -14 44 -25 142 -25 221 0 92 -7 130 -22 130 -5 0 -7 -22 -4 -52z"/>
<path d="M9408 6264 c-5 -4 -8 -18 -8 -31 0 -14 -4 -21 -10 -18 -6 4 -13 -7
-16 -24 -4 -17 -11 -28 -16 -25 -6 4 -6 -1 0 -13 16 -30 24 -135 12 -168 -8
-25 -9 -19 -5 35 3 46 2 61 -5 50 -6 -8 -10 -47 -9 -85 1 -39 -3 -80 -9 -92
-7 -12 -9 -41 -5 -73 4 -38 2 -54 -7 -60 -11 -7 -11 -11 -1 -24 16 -19 42 -21
60 -3 11 10 13 9 9 -2 -2 -8 -22 -20 -43 -28 -53 -18 -67 -33 -32 -33 29 0 82
23 105 46 26 27 29 71 15 269 -15 219 -24 291 -35 279z"/>
<path d="M6141 6238 c1 -7 5 -24 9 -38 8 -24 8 -24 9 7 1 17 -3 35 -9 38 -5 3
-10 0 -9 -7z"/>
<path d="M6002 6210 c0 -19 2 -27 5 -17 2 9 2 25 0 35 -3 9 -5 1 -5 -18z"/>
<path d="M8796 6208 c-4 -18 -2 -36 4 -42 8 -8 10 -7 6 4 -8 21 7 42 25 35 8
-3 32 -30 54 -61 51 -71 71 -88 43 -35 -12 22 -25 41 -28 41 -4 0 -20 20 -36
45 -33 54 -59 59 -68 13z"/>
<path d="M9040 6190 c7 -13 18 -30 24 -36 6 -6 31 -43 56 -82 25 -39 49 -71
53 -71 12 -1 -11 37 -71 119 -64 87 -79 105 -62 70z"/>
<path d="M8813 5975 c0 -33 2 -45 4 -27 2 18 2 45 0 60 -2 15 -4 0 -4 -33z"/>
<path d="M8980 6014 c0 -5 13 -25 28 -44 16 -19 55 -73 87 -120 33 -47 70 -96
82 -110 13 -14 23 -28 23 -31 0 -7 62 -39 75 -39 4 0 2 7 -5 15 -7 8 -18 15
-25 15 -14 0 -95 80 -95 93 0 8 -75 113 -97 135 -7 7 -13 16 -13 20 -1 12 -60
77 -60 66z"/>
<path d="M9316 5935 c-3 -8 -1 -15 4 -15 6 0 10 7 10 15 0 8 -2 15 -4 15 -2 0
-6 -7 -10 -15z"/>
<path d="M8366 5870 c7 -28 12 -35 18 -29 2 2 -2 15 -10 29 l-15 25 7 -25z"/>
<path d="M4720 5835 c-6 -8 -10 -19 -8 -24 1 -6 8 1 15 14 13 28 11 31 -7 10z"/>
<path d="M5704 5829 c-5 -9 2 -13 44 -22 18 -4 21 -3 12 8 -14 17 -48 26 -56
14z"/>
<path d="M5610 5820 c-13 -9 -13 -10 0 -9 8 1 26 5 40 9 l25 8 -25 1 c-14 0
-32 -4 -40 -9z"/>
<path d="M8380 5812 c0 -10 5 -23 10 -28 13 -13 -4 -64 -20 -64 -6 0 -8 -5 -5
-10 4 -6 -8 -17 -27 -24 l-33 -14 45 -7 c25 -3 62 -5 82 -3 l36 3 -18 38 c-10
21 -26 58 -36 82 -17 46 -34 59 -34 27z"/>
<path d="M5680 5787 c0 -11 -8 -17 -25 -17 -14 0 -25 -4 -25 -10 0 -20 48 -11
55 11 4 11 4 23 1 26 -3 4 -6 -1 -6 -10z"/>
<path d="M3120 5756 l0 -36 85 0 85 0 -1 33 c-1 21 -3 25 -6 12 -8 -31 -22
-42 -33 -25 -7 10 -10 11 -10 3 0 -9 -11 -11 -37 -7 -46 7 -75 22 -68 34 3 5
1 11 -5 15 -6 4 -10 -8 -10 -29z"/>
<path d="M4691 5779 c-1 -9 -12 -21 -26 -27 -14 -6 -25 -16 -25 -22 0 -7 6 -8
18 -1 27 15 45 39 39 53 -4 9 -6 8 -6 -3z"/>
<path d="M5768 5763 c7 -3 16 -2 19 1 4 3 -2 6 -13 5 -11 0 -14 -3 -6 -6z"/>
<path d="M4099 5733 c5 -21 15 -29 34 -31 15 -2 27 2 27 8 0 6 -8 10 -17 8
-11 -2 -22 6 -28 20 -14 31 -25 28 -16 -5z"/>
<path d="M2680 5740 l-45 -7 48 -1 c26 -1 47 3 47 8 0 6 -1 9 -2 8 -2 0 -23
-4 -48 -8z"/>
<path d="M4502 5735 c10 -11 37 -20 70 -23 63 -5 56 13 -7 20 -22 3 -49 8 -60
13 -19 7 -19 7 -3 -10z"/>
<path d="M5668 5733 c7 -3 16 -2 19 1 4 3 -2 6 -13 5 -11 0 -14 -3 -6 -6z"/>
<path d="M3430 5720 c0 -5 5 -10 10 -10 6 0 10 5 10 10 0 6 -4 10 -10 10 -5 0
-10 -4 -10 -10z"/>
<path d="M3605 5720 c-3 -5 -1 -10 4 -10 6 0 11 5 11 10 0 6 -2 10 -4 10 -3 0
-8 -4 -11 -10z"/>
<path d="M5811 5714 c0 -11 3 -14 6 -6 3 7 2 16 -1 19 -3 4 -6 -2 -5 -13z"/>
<path d="M3533 5713 c9 -2 25 -2 35 0 9 3 1 5 -18 5 -19 0 -27 -2 -17 -5z"/>
<path d="M4205 5709 c-23 -5 -16 -7 28 -8 31 0 57 3 57 8 0 10 -39 10 -85 0z"/>
<path d="M5620 5710 c-16 -5 10 -8 74 -9 55 -1 97 1 95 3 -10 8 -146 13 -169
6z"/>
<path d="M6630 5700 c-13 -8 -12 -10 3 -10 9 0 17 5 17 10 0 12 -1 12 -20 0z"/>
<path d="M1666 5647 c3 -10 9 -15 12 -12 3 3 0 11 -7 18 -10 9 -11 8 -5 -6z"/>
<path d="M825 5618 c-3 -13 -19 -50 -35 -82 -27 -56 -30 -86 -8 -86 5 0 8 7 6
16 -2 10 5 18 15 20 11 1 22 6 25 10 4 4 -1 4 -10 1 -10 -4 -18 -2 -18 3 0 6
4 10 9 10 4 0 6 11 3 25 -2 14 0 31 5 38 12 14 26 67 18 67 -2 0 -7 -10 -10
-22z"/>
<path d="M1972 5448 c8 -22 36 -34 50 -19 11 11 9 12 -9 6 -17 -5 -23 -2 -23
9 0 9 -5 16 -11 16 -6 0 -9 -5 -7 -12z"/>
<path d="M700 4840 c0 -5 -12 -12 -27 -16 -16 -3 -43 -12 -61 -20 -18 -8 -36
-13 -41 -9 -5 3 -11 0 -13 -6 -3 -9 -10 -9 -27 0 -35 19 -148 26 -148 9 0 -7
-7 -38 -16 -68 -16 -58 -29 -334 -18 -380 10 -38 43 -37 73 2 13 18 27 40 30
49 10 27 94 61 134 53 53 -10 104 -68 138 -157 30 -80 30 -100 2 -175 -9 -24
-14 -57 -11 -75 6 -34 35 -97 46 -97 3 0 9 42 13 93 7 100 19 127 74 162 17
11 31 25 32 31 0 6 9 19 21 30 18 16 39 19 172 20 l152 1 35 -37 c19 -20 50
-46 67 -56 20 -11 37 -31 44 -51 12 -38 18 -40 45 -15 10 10 27 16 36 14 12
-2 20 8 29 40 23 78 52 105 106 99 15 -1 23 5 28 21 4 13 14 30 22 39 8 10 15
41 16 78 1 39 6 62 14 65 7 3 13 15 13 26 0 12 4 19 9 16 15 -9 41 41 41 79 0
19 -4 35 -10 35 -5 0 -10 10 -10 23 0 44 -34 59 -130 58 -68 0 -90 3 -94 15
-3 7 -15 14 -26 14 -11 0 -20 4 -20 9 0 13 -74 20 -82 7 -5 -7 -8 -6 -8 3 0
11 -3 11 -16 0 -13 -10 -17 -10 -24 0 -6 10 -9 8 -14 -7 -6 -19 -33 -29 -91
-35 -12 -1 -83 19 -138 38 -33 12 -38 12 -47 -4 -8 -15 -24 -19 -90 -20 -80
-2 -81 -2 -98 29 -9 16 -23 30 -30 30 -7 0 -11 4 -8 9 8 12 -50 35 -69 27 -9
-3 -13 -2 -10 4 3 6 1 10 -4 10 -6 0 -11 -4 -11 -10z m866 -365 c-3 -8 -12
-12 -20 -9 -12 5 -12 8 2 23 18 18 28 10 18 -14z"/>
<path d="M8090 4840 c0 -5 5 -10 11 -10 5 0 7 5 4 10 -3 6 -8 10 -11 10 -2 0
-4 -4 -4 -10z"/>
<path d="M5207 4776 c-4 -10 -5 -21 -2 -24 9 -9 17 6 13 25 -3 17 -4 17 -11
-1z"/>
<path d="M5078 4773 c7 -3 16 -2 19 1 4 3 -2 6 -13 5 -11 0 -14 -3 -6 -6z"/>
<path d="M7330 4755 c0 -18 -20 -20 -21 -2 -2 25 -17 -71 -24 -156 -5 -64 -4
-91 5 -102 21 -26 76 2 65 32 -2 7 1 39 6 72 11 62 -3 171 -22 171 -5 0 -9 -7
-9 -15z"/>
<path d="M2 4149 l-2 -606 26 5 c37 7 58 45 55 102 -5 89 55 161 121 145 13
-3 44 -24 68 -46 37 -34 48 -39 74 -33 46 9 55 23 62 92 6 53 4 65 -12 83 -18
20 -25 21 -124 14 -99 -6 -107 -5 -133 15 -37 29 -50 57 -82 175 -24 85 -29
124 -32 255 -2 85 -7 211 -12 280 -6 89 -8 -51 -9 -481z"/>
<path d="M5036 4729 c3 -5 -6 -14 -20 -21 -22 -10 -26 -18 -26 -56 0 -44 0
-45 20 -27 20 18 20 17 20 -16 l1 -34 15 28 c17 31 38 35 52 10 9 -15 11 -15
26 0 31 30 56 1 56 -66 0 -57 -37 -88 -59 -49 -9 16 -11 16 -25 -3 -16 -20
-16 -20 -35 3 -22 26 -31 28 -31 7 0 -8 -4 -15 -10 -15 -5 0 -10 7 -10 15 0 8
-4 15 -10 15 -6 0 -10 -63 -10 -170 0 -163 1 -170 20 -170 16 0 20 -7 21 -37
l1 -38 10 37 c12 44 33 55 55 28 16 -18 17 -18 30 7 7 14 13 42 13 63 0 36 23
70 47 70 29 0 34 -32 35 -256 0 -126 5 -234 10 -240 5 -8 3 -18 -7 -27 -21
-21 -19 -44 5 -50 11 -3 20 -2 20 3 0 4 20 11 45 14 41 7 45 10 51 42 6 33 15
39 57 36 15 -2 17 11 17 126 2 419 -1 544 -13 562 -9 15 -9 22 1 32 14 14 16
88 2 88 -5 0 -11 17 -11 38 -2 30 -3 32 -6 10 -2 -16 -11 -28 -18 -28 -18 0
-29 -41 -21 -75 4 -17 11 -23 24 -19 10 4 13 2 7 -3 -30 -25 -35 -57 -35 -236
0 -133 3 -187 13 -196 10 -11 10 -14 0 -18 -7 -3 -13 -17 -13 -33 0 -31 -17
-41 -63 -36 -34 3 -45 14 -23 22 20 8 20 18 -1 40 -16 15 -16 17 0 29 20 14
23 65 5 84 -9 9 -9 15 -3 17 13 5 9 134 -4 147 -4 4 -1 28 8 53 13 37 14 46 2
53 -11 7 -11 9 0 14 9 3 -1 11 -24 21 -36 16 -42 36 -12 36 22 0 37 37 34 83
-4 68 -17 87 -58 88 -137 6 -180 5 -175 -2z m124 -330 c0 -5 -4 -9 -10 -9 -5
0 -10 7 -10 16 0 8 5 12 10 9 6 -3 10 -10 10 -16z m165 -579 c11 -5 14 -9 8
-9 -7 -1 -13 -11 -14 -23 0 -13 -3 -17 -6 -10 -2 6 -15 12 -27 12 -29 0 -39
10 -25 27 13 15 34 16 64 3z"/>
<path d="M7975 4701 c-3 -5 -1 -12 5 -16 5 -3 10 1 10 9 0 18 -6 21 -15 7z"/>
<path d="M6888 4693 c-10 -2 -18 -9 -18 -14 0 -6 -8 -9 -17 -7 -16 3 -18 -8
-21 -84 l-3 -88 66 0 66 0 -2 82 c-2 56 -8 88 -18 100 -16 18 -22 19 -53 11z"/>
<path d="M5716 4644 c-12 -89 0 -156 18 -108 3 8 10 12 16 9 19 -12 11 88 -9
119 l-19 28 -6 -48z"/>
<path d="M4868 4663 c-17 -21 -17 -68 0 -85 20 -20 14 -28 -22 -28 -25 0 -35
5 -39 20 -3 11 -11 20 -19 19 -10 0 -10 -2 0 -6 16 -6 15 -23 -2 -23 -7 0 -17
-10 -21 -22 -6 -20 -8 -20 -12 -5 -2 9 -11 17 -20 17 -13 0 -13 -2 -2 -17 8
-9 -4 -5 -25 10 -42 28 -59 25 -71 -14 -4 -11 -11 -16 -17 -13 -6 4 -13 1 -17
-5 -10 -16 -36 -4 -49 22 -8 17 -11 18 -11 5 -1 -9 -6 -18 -12 -20 -12 -4 -27
-150 -35 -351 -4 -102 -10 -147 -18 -146 -46 6 -46 5 -46 -121 0 -119 0 -121
25 -132 14 -6 25 -15 25 -20 0 -5 -11 -14 -25 -20 -24 -11 -25 -14 -25 -107 0
-53 4 -100 8 -106 12 -17 32 -16 32 1 0 13 3 14 14 5 19 -16 80 9 96 40 7 12
15 18 19 12 11 -16 51 -13 60 5 5 9 12 50 16 90 7 69 6 74 -14 79 -26 7 -28
33 -2 33 18 0 20 8 20 75 0 83 12 115 41 115 37 0 50 -27 50 -106 0 -67 2 -74
20 -74 19 0 20 7 20 186 0 150 3 192 16 220 20 41 28 42 59 8 14 -15 25 -23
25 -18 0 5 7 0 15 -10 13 -18 15 0 15 162 0 128 -4 188 -12 202 -10 16 -10 24
0 40 25 41 8 85 -21 55 -23 -22 -27 -19 -20 15 6 34 2 37 -19 13z m-237 -248
c-1 -11 -61 -14 -61 -3 0 7 37 16 53 14 5 -1 8 -6 8 -11z m139 -5 c0 -5 -2
-10 -4 -10 -3 0 -8 5 -11 10 -3 6 -1 10 4 10 6 0 11 -4 11 -10z m-147 -23 c4
3 7 -27 8 -68 0 -127 1 -470 0 -551 l-1 -78 -35 0 c-25 0 -38 5 -42 18 -3 9
-12 24 -20 34 -10 11 -11 18 -4 23 8 4 11 99 11 294 -1 158 2 294 5 303 8 21
47 38 61 27 6 -5 14 -6 17 -2z m287 -155 c0 -13 -12 -22 -22 -16 -10 6 -1 24
13 24 5 0 9 -4 9 -8z m-280 -568 c0 -8 -5 -12 -10 -9 -6 4 -8 11 -5 16 9 14
15 11 15 -7z"/>
<path d="M7955 4670 c3 -5 8 -10 11 -10 2 0 4 5 4 10 0 6 -5 10 -11 10 -5 0
-7 -4 -4 -10z"/>
<path d="M5930 4649 c0 -5 -4 -7 -10 -4 -6 4 -10 -6 -10 -22 0 -15 -3 -38 -6
-51 -5 -18 -2 -24 15 -29 11 -3 21 -13 21 -22 1 -12 5 -11 21 8 18 23 20 23
38 7 15 -14 24 -15 39 -7 11 6 23 16 25 23 4 8 8 4 13 -10 7 -23 30 -26 28 -4
-1 7 -2 35 -2 62 -2 51 -22 72 -22 23 0 -19 -3 -24 -11 -16 -6 6 -12 19 -13
29 -2 13 -13 20 -36 22 -27 3 -32 1 -26 -13 8 -21 -3 -67 -15 -59 -5 3 -9 21
-9 40 0 27 -4 34 -20 34 -11 0 -20 -5 -20 -11z"/>
<path d="M5601 4608 c-1 -26 4 -50 9 -53 12 -7 12 38 0 75 -7 20 -8 16 -9 -22z"/>
<path d="M4820 4624 c0 -8 -4 -13 -8 -10 -4 2 -14 1 -22 -5 -13 -7 -13 -9 0
-9 25 0 60 12 60 20 0 4 -7 10 -15 14 -9 3 -15 0 -15 -10z"/>
<path d="M6136 4592 c-5 -27 -4 -48 2 -54 14 -14 19 10 12 57 l-6 40 -8 -43z"/>
<path d="M5469 4587 c-3 -20 -5 -193 -4 -383 1 -314 3 -347 18 -356 9 -5 17
-18 17 -28 0 -11 5 -20 11 -20 5 0 7 5 4 10 -12 19 17 40 54 40 20 0 47 1 61
2 14 1 32 0 40 -3 11 -3 15 5 15 31 0 19 5 35 10 35 6 0 9 -8 8 -18 -2 -10 2
-15 7 -12 6 3 13 -1 16 -9 9 -23 41 -20 49 4 3 11 4 24 0 29 -3 5 -1 12 5 16
5 3 11 27 12 53 l1 47 4 -40 c3 -22 9 -44 14 -49 5 -6 9 75 9 212 0 207 -1
223 -17 220 -11 -2 -18 3 -18 12 0 9 7 14 18 12 14 -2 17 5 17 36 0 22 -7 53
-15 68 -10 20 -15 23 -15 12 0 -20 -44 -26 -55 -8 -17 27 -26 4 -24 -66 1 -41
-2 -79 -7 -84 -5 -5 -23 -3 -41 5 -32 14 -33 15 -33 80 0 65 0 66 -30 72 -32
6 -36 14 -20 44 7 13 7 19 0 19 -5 0 -10 -4 -10 -10 0 -18 -22 -10 -42 15 -11
14 -25 25 -33 25 -7 0 -15 6 -18 13 -2 6 -6 -5 -8 -26z m46 -38 c11 -3 21 -12
23 -22 3 -15 -2 -18 -24 -15 -24 2 -29 8 -31 33 -1 16 1 25 5 19 4 -7 16 -13
27 -15z m282 -121 c-2 -13 -4 -5 -4 17 -1 22 1 32 4 23 2 -10 2 -28 0 -40z m0
-110 c-3 -7 -5 -2 -5 12 0 14 2 19 5 13 2 -7 2 -19 0 -25z m13 -88 c0 -5 -7
-10 -16 -10 -8 0 -12 5 -9 10 3 6 10 10 16 10 5 0 9 -4 9 -10z m-323 -172 c-3
-8 -6 -5 -6 6 -1 11 2 17 5 13 3 -3 4 -12 1 -19z m313 12 c0 -5 -4 -10 -10
-10 -5 0 -10 5 -10 10 0 6 5 10 10 10 6 0 10 -4 10 -10z m-308 -182 c-9 -9
-12 -7 -12 12 0 19 3 21 12 12 9 -9 9 -15 0 -24z m105 10 c-3 -8 -6 -5 -6 6
-1 11 2 17 5 13 3 -3 4 -12 1 -19z m173 3 c0 -5 -12 -6 -27 -3 -24 5 -25 6 -8
12 21 8 35 4 35 -9z"/>
<path d="M5072 4556 c1 -29 4 -42 9 -34 11 17 11 49 0 67 -6 10 -9 -1 -9 -33z"/>
<path d="M5140 4519 c0 -5 5 -7 10 -4 6 3 10 8 10 11 0 2 -4 4 -10 4 -5 0 -10
-5 -10 -11z"/>
<path d="M7490 4505 c0 -8 5 -15 10 -15 6 0 10 7 10 15 0 8 -4 15 -10 15 -5 0
-10 -7 -10 -15z"/>
<path d="M4182 4463 l3 -48 -67 3 c-45 3 -68 0 -68 -7 0 -6 -6 -11 -14 -11 -7
0 -18 -18 -23 -42 -10 -41 -11 -41 -12 -11 0 17 -5 35 -11 38 -5 3 -10 2 -10
-2 0 -5 -16 -26 -35 -47 -36 -40 -59 -96 -43 -107 6 -3 3 -9 -4 -12 -10 -3
-15 -24 -17 -59 -6 -116 -9 -146 -15 -156 -7 -11 -9 -145 -6 -414 2 -193 2
-192 28 -196 33 -5 42 33 41 173 l0 124 -27 3 c-36 4 -36 32 0 36 27 3 27 3
27 91 1 106 5 120 42 128 18 3 29 12 29 22 0 9 7 4 17 -14 11 -21 16 -57 17
-122 l1 -93 28 0 27 0 0 134 c0 98 -3 136 -12 140 -10 5 -10 7 0 12 7 3 12 24
12 49 0 44 19 75 45 75 7 0 20 2 27 5 29 11 39 -61 36 -237 -3 -152 -1 -167
15 -172 9 -2 17 -9 17 -16 0 -7 -8 -14 -17 -16 -16 -5 -18 -17 -13 -124 5
-112 11 -142 27 -126 9 9 19 212 18 356 -1 63 -3 219 -4 347 -1 147 -5 235
-12 239 -6 3 -8 12 -5 19 8 23 -14 85 -30 85 -13 0 -15 -10 -12 -47z m-164
-234 c-2 -6 -8 -10 -13 -10 -5 0 -11 4 -13 10 -2 6 4 11 13 11 9 0 15 -5 13
-11z m162 1 c0 -5 -7 -10 -16 -10 -8 0 -12 5 -9 10 3 6 10 10 16 10 5 0 9 -4
9 -10z m-160 -211 c0 -5 -12 -9 -27 -9 -26 0 -26 1 -8 14 20 14 35 12 35 -5z"/>
<path d="M4120 4484 c-52 -22 -56 -38 -12 -46 45 -8 67 8 55 39 -8 20 -10 21
-43 7z"/>
<path d="M5923 4483 c-13 -2 -23 -10 -23 -16 0 -7 -4 -6 -10 3 -7 11 -10 3 -9
-30 0 -34 2 -40 9 -25 8 18 9 17 9 -7 1 -16 6 -28 11 -28 6 0 10 -4 10 -10 0
-5 -3 -9 -7 -9 -19 3 -33 -2 -33 -12 0 -5 5 -7 10 -4 6 3 10 1 10 -4 0 -6 -4
-11 -10 -11 -5 0 -10 -20 -10 -45 0 -25 5 -45 10 -45 6 0 10 -7 10 -16 0 -8
-4 -12 -10 -9 -6 4 -10 -6 -11 -22 0 -15 -2 -42 -5 -60 -2 -21 2 -38 14 -49
12 -13 13 -19 4 -22 -7 -2 -12 -20 -12 -40 0 -28 3 -33 10 -22 7 11 10 5 10
-25 1 -35 2 -38 12 -20 13 22 34 45 42 45 2 0 7 -8 9 -17 4 -16 6 -15 12 3 4
13 14 20 28 19 12 -1 25 3 29 9 4 6 8 0 8 -14 0 -20 2 -22 10 -10 6 9 10 91 9
201 -1 119 3 193 10 205 9 17 10 17 11 2 0 -10 5 -18 10 -18 6 0 10 20 10 45
0 43 -1 45 -25 39 -14 -3 -31 -1 -39 5 -8 7 -25 9 -39 6 -14 -4 -28 -2 -31 4
-4 6 -10 10 -14 10 -4 -1 -17 -4 -29 -6z m82 -118 c-7 -6 -15 -22 -18 -35 -4
-25 -4 -25 -6 2 0 15 -6 30 -11 33 -7 4 -7 13 0 25 10 19 11 19 29 2 14 -13
16 -19 6 -27z m-15 -141 c0 -8 -4 -12 -10 -9 -5 3 -10 10 -10 16 0 5 5 9 10 9
6 0 10 -7 10 -16z m0 -149 c0 -8 -4 -15 -10 -15 -5 0 -10 7 -10 15 0 8 5 15
10 15 6 0 10 -7 10 -15z"/>
<path d="M6140 4440 c0 -11 2 -20 4 -20 2 0 6 9 9 20 3 11 1 20 -4 20 -5 0 -9
-9 -9 -20z"/>
<path d="M6275 4440 c3 -5 8 -10 11 -10 2 0 4 5 4 10 0 6 -5 10 -11 10 -5 0
-7 -4 -4 -10z"/>
<path d="M3210 4425 c0 -7 -15 -9 -35 -7 -19 2 -50 1 -69 -2 -29 -6 -36 -12
-44 -44 -10 -37 -10 -37 -12 -7 -1 17 -2 33 -2 36 2 10 -82 -32 -86 -42 -2 -5
-8 -7 -13 -3 -5 3 -9 -21 -9 -55 0 -42 4 -62 15 -68 10 -6 15 -31 17 -83 2
-51 7 -75 16 -76 6 -1 13 -2 15 -3 1 -2 12 -4 25 -7 19 -3 22 0 23 34 l1 37 8
-33 c10 -43 12 -44 44 -32 15 5 45 10 67 10 21 0 39 4 39 9 0 4 10 8 23 7 18
-1 23 6 28 34 l6 35 2 -32 c1 -36 7 -39 45 -21 27 12 43 60 33 98 -3 11 -1 20
4 20 12 0 9 90 -4 143 -6 24 -15 37 -26 37 -14 0 -14 2 -1 10 12 8 11 10 -7
10 -13 0 -23 -6 -23 -12 0 -9 -4 -8 -10 2 -7 12 -10 8 -10 -15 l-1 -30 -13 30
c-9 21 -14 26 -20 16 -7 -11 -10 -11 -17 0 -5 8 -9 9 -9 4z m-145 -205 c-5 -8
-11 -8 -17 -2 -6 6 -7 16 -3 22 5 8 11 8 17 2 6 -6 7 -16 3 -22z m210 0 c-5
-8 -11 -8 -17 -2 -6 6 -7 16 -3 22 5 8 11 8 17 2 6 -6 7 -16 3 -22z"/>
<path d="M6425 4417 c-4 -10 -5 -21 -1 -24 10 -10 18 4 13 24 -4 17 -4 17 -12
0z"/>
<path d="M6573 4413 c-21 -14 -23 -24 -23 -92 0 -47 5 -82 12 -89 18 -18 52
-14 76 8 19 18 22 31 22 99 0 63 -3 80 -16 85 -25 10 -47 6 -71 -11z"/>
<path d="M6281 4404 c0 -11 3 -14 6 -6 3 7 2 16 -1 19 -3 4 -6 -2 -5 -13z"/>
<path d="M3530 4368 c-28 -94 -22 -138 19 -138 44 0 62 61 45 149 -5 23 -12
31 -29 31 -17 0 -25 -9 -35 -42z"/>
<path d="M4347 4333 c-4 -43 -5 -190 -4 -328 2 -214 4 -250 17 -250 16 0 17
45 12 453 -2 205 -15 266 -25 125z"/>
<path d="M6830 4391 c0 -29 73 -38 106 -12 30 23 16 31 -57 31 -41 0 -49 -3
-49 -19z"/>
<path d="M2668 4373 c-20 -2 -42 -10 -48 -18 -10 -12 -16 -12 -39 -1 -36 18
-72 6 -94 -32 -24 -40 -37 -250 -17 -286 l12 -23 54 29 c29 16 56 33 59 38 3
5 19 1 36 -7 42 -21 49 -9 49 84 l0 72 63 3 62 3 -4 65 c-1 36 -8 68 -15 72
-11 8 -50 8 -118 1z m-48 -143 c0 -26 -15 -33 -30 -15 -10 12 -10 18 0 30 15
18 30 11 30 -15z"/>
<path d="M6417 4282 c-10 -22 -13 -38 -7 -40 12 -4 3 -22 -11 -22 -5 0 -9 9
-9 20 0 27 -6 25 -36 -7 l-24 -28 -34 38 c-34 38 -54 37 -41 -2 3 -11 1 -22
-5 -26 -15 -9 -12 -98 4 -120 12 -16 18 -18 37 -8 25 12 101 33 132 36 10 1
22 9 27 17 14 22 12 124 -3 153 l-13 26 -17 -37z"/>
<path d="M2224 4278 c-4 -6 -11 -28 -15 -47 -4 -20 -12 -60 -18 -88 -7 -35
-21 -63 -41 -84 -24 -25 -28 -37 -23 -58 4 -14 7 -37 7 -51 1 -43 40 -67 79
-49 16 7 29 28 40 65 27 88 30 130 16 224 -12 84 -28 115 -45 88z"/>
<path d="M2841 4274 c0 -11 3 -14 6 -6 3 7 2 16 -1 19 -3 4 -6 -2 -5 -13z"/>
<path d="M4990 4145 c0 -8 5 -15 10 -15 6 0 10 7 10 15 0 8 -4 15 -10 15 -5 0
-10 -7 -10 -15z"/>
<path d="M5070 4113 c0 -35 3 -44 10 -33 13 20 13 67 0 75 -6 4 -10 -12 -10
-42z"/>
<path d="M1025 4135 c-5 -2 -23 -6 -39 -10 l-29 -6 6 -65 c5 -72 17 -94 41
-75 7 6 18 11 22 10 24 -6 66 24 79 55 8 19 27 43 42 54 15 11 26 22 23 25 -6
5 -132 16 -145 12z"/>
<path d="M4990 4079 c0 -11 5 -17 10 -14 6 3 10 13 10 21 0 8 -4 14 -10 14 -5
0 -10 -9 -10 -21z"/>
<path d="M5100 4050 c-11 -11 -15 -42 -16 -128 -1 -112 -1 -112 22 -112 30 0
31 -18 2 -30 -13 -5 -17 -9 -9 -9 10 -1 11 -4 2 -14 -14 -18 -5 -26 20 -20 18
5 24 16 19 38 -1 5 -1 67 -1 137 0 71 -3 128 -8 128 -5 0 -11 6 -13 13 -2 10
-7 9 -18 -3z"/>
<path d="M4990 3925 c0 -58 3 -105 8 -105 4 0 7 47 7 105 0 58 -3 105 -7 105
-5 0 -8 -47 -8 -105z"/>
<path d="M2035 4009 c-4 -5 -13 -8 -21 -5 -12 4 -12 2 -4 -14 13 -24 3 -73
-14 -63 -6 3 -2 -3 8 -15 16 -18 22 -20 34 -9 8 6 18 11 21 10 6 -3 6 3 3 27
-1 6 -9 10 -17 10 -19 0 -19 24 0 44 9 8 11 17 6 21 -5 3 -13 0 -16 -6z"/>
<path d="M3512 3858 c-14 -30 -24 -158 -11 -158 5 0 9 -9 9 -20 0 -11 -5 -20
-10 -20 -7 0 -9 -53 -6 -147 5 -176 9 -200 34 -226 17 -16 28 -18 66 -13 48 8
48 7 50 76 1 14 6 25 11 25 6 0 9 -16 7 -35 -2 -32 -1 -33 12 -17 10 13 14 50
15 135 2 110 1 116 -14 95 -20 -28 -65 -30 -88 -5 -15 16 -23 142 -18 266 1
26 -4 42 -16 52 -24 18 -28 17 -41 -8z"/>
<path d="M3293 3863 c-9 -3 -13 -31 -13 -88 l0 -84 32 -3 c38 -3 55 -38 19
-38 -18 0 -20 -7 -20 -101 l0 -100 32 3 32 3 -1 135 c-3 258 -15 300 -81 273z"/>
<path d="M3160 3850 c-14 -4 -39 -8 -57 -9 -23 -1 -33 -7 -39 -23 -6 -19 -7
-19 -16 -5 -8 14 -13 15 -31 5 -12 -7 -25 -11 -29 -10 -9 2 -16 -25 -18 -68
-3 -67 -1 -78 23 -84 l22 -6 -27 -21 -27 -20 0 -137 c0 -131 13 -293 19 -227
1 17 2 33 1 37 0 4 16 15 36 23 49 21 85 9 90 -30 10 -72 21 -54 28 44 7 95 9
103 31 111 22 9 23 14 23 94 0 117 8 155 36 162 27 7 34 31 27 109 -4 49 -7
56 -23 52 -11 -3 -19 -1 -19 4 0 10 -15 10 -50 -1z m-95 -90 c-5 -8 -11 -8
-17 -2 -6 6 -7 16 -3 22 5 8 11 8 17 2 6 -6 7 -16 3 -22z m115 -100 c0 -17 -7
-20 -51 -20 -61 0 -64 22 -3 31 21 3 42 7 47 8 4 0 7 -8 7 -19z"/>
<path d="M1108 3843 c-23 -4 -28 -9 -28 -34 0 -33 7 -32 47 5 23 21 30 37 16
35 -5 -1 -20 -4 -35 -6z"/>
<path d="M6884 3842 c-13 -8 -36 -60 -53 -117 -7 -22 -11 -71 -9 -110 l3 -70
30 4 c17 1 33 8 37 15 18 27 28 87 28 168 0 109 -7 130 -36 110z"/>
<path d="M6392 3813 c-18 -3 -42 -13 -53 -24 -10 -10 -27 -19 -36 -19 -24 0
-64 -63 -62 -98 1 -15 -2 -70 -5 -122 -4 -52 -4 -128 0 -168 l6 -72 53 3 c29
3 59 8 66 13 8 5 24 7 36 6 11 -2 24 2 28 7 3 6 15 11 26 11 22 0 20 -14 19
260 -1 184 -5 211 -29 208 -9 0 -31 -3 -49 -5z"/>
<path d="M6670 3790 c-25 -4 -62 -5 -82 -2 -49 6 -49 3 -46 -233 3 -182 4
-190 23 -190 29 0 31 -33 2 -44 -23 -9 -24 -13 -29 -153 -7 -165 -2 -328 10
-340 11 -11 167 38 183 59 11 12 14 63 13 232 0 119 -1 232 -2 251 -1 19 1 93
4 164 5 122 -9 268 -24 265 -4 -1 -27 -5 -52 -9z"/>
<path d="M5350 3779 c0 -5 5 -7 10 -4 6 3 10 8 10 11 0 2 -4 4 -10 4 -5 0 -10
-5 -10 -11z"/>
<path d="M5995 3758 c-4 -10 -4 -26 0 -35 8 -17 8 -17 12 0 3 9 3 25 0 35 -4
16 -4 16 -12 0z"/>
<path d="M4774 3747 c-2 -7 -3 -35 0 -62 2 -28 4 -56 5 -62 1 -15 20 -17 40
-4 11 7 11 13 0 32 -7 13 -11 43 -10 67 2 33 -1 42 -14 42 -8 0 -18 -6 -21
-13z"/>
<path d="M6051 3744 c0 -11 3 -14 6 -6 3 7 2 16 -1 19 -3 4 -6 -2 -5 -13z"/>
<path d="M4352 3728 c-16 -21 -14 -203 2 -217 12 -10 15 0 20 61 6 83 4 154
-5 162 -3 4 -11 1 -17 -6z"/>
<path d="M4037 3583 c3 -132 8 -166 26 -160 19 6 25 45 26 165 l1 112 -27 0
-28 0 2 -117z"/>
<path d="M2475 3682 c-14 -10 -35 -49 -35 -66 0 -29 -30 -46 -81 -46 -47 0
-51 2 -64 33 -21 51 -60 79 -103 74 -20 -1 -52 -11 -71 -20 -19 -9 -45 -17
-58 -17 -43 0 -63 -17 -57 -49 5 -22 0 -34 -20 -52 -26 -24 -26 -26 -34 -229
-5 -137 -4 -255 4 -355 6 -82 12 -151 13 -153 2 -6 80 7 134 23 75 22 96 41
105 95 l8 45 63 11 c34 6 67 16 73 22 7 7 17 8 29 2 10 -6 42 -7 77 -2 33 5
70 4 83 0 18 -7 27 -4 40 13 12 16 23 20 41 16 15 -4 32 -1 43 7 17 12 19 28
19 142 0 71 -3 141 -7 156 l-7 27 -25 -25 c-29 -29 -55 -31 -86 -5 -21 17 -24
28 -27 127 -2 60 -8 119 -14 131 -6 12 -8 32 -5 44 6 22 -7 59 -21 59 -4 0
-11 -4 -17 -8z m-265 -77 c21 -25 4 -42 -49 -48 -29 -3 -58 -4 -66 0 -18 6
-20 49 -2 56 28 12 105 7 117 -8z m170 -135 c0 -5 -7 -10 -15 -10 -8 0 -15 5
-15 10 0 6 7 10 15 10 8 0 15 -4 15 -10z"/>
<path d="M5494 3677 c-9 -25 0 -90 14 -95 7 -2 12 5 12 17 0 11 4 22 9 25 12
8 -2 59 -17 64 -7 2 -15 -3 -18 -11z"/>
<path d="M5556 3665 c-4 -15 0 -37 8 -53 17 -30 18 -27 20 36 2 47 -18 59 -28
17z"/>
<path d="M5385 3660 c-4 -6 -16 -10 -28 -10 -12 0 -36 -9 -54 -20 -30 -18 -32
-23 -30 -69 1 -27 5 -47 9 -45 4 3 5 -1 2 -9 -3 -8 2 -17 10 -20 9 -4 16 -16
16 -27 0 -11 4 -20 9 -20 5 0 7 8 4 18 -2 10 3 24 11 31 9 8 16 19 16 26 0 8
6 16 13 18 7 3 4 6 -6 6 -12 1 -16 5 -10 14 4 6 6 22 4 35 -1 12 2 22 7 22 14
0 33 -50 27 -70 -10 -33 13 -31 24 2 16 46 14 115 -4 121 -8 4 -17 2 -20 -3z"/>
<path d="M5992 3640 c3 -21 -1 -24 -20 -22 -17 3 -25 -2 -29 -17 -5 -19 -25
-31 -22 -13 1 4 1 20 0 35 -1 29 -21 29 -21 1 0 -9 -7 -22 -15 -31 -24 -23
-10 -31 50 -26 l55 5 0 -154 c0 -105 4 -158 12 -166 9 -9 9 -17 0 -34 -9 -17
-12 -101 -10 -313 3 -278 4 -290 22 -290 30 0 31 -24 2 -35 -23 -8 -26 -15
-26 -54 0 -36 -4 -46 -20 -51 -11 -3 -24 -3 -30 0 -5 3 -10 2 -10 -4 0 -10
-38 -27 -52 -23 -9 2 -11 -459 -2 -482 4 -11 12 -13 28 -6 26 10 213 96 236
109 36 20 40 50 37 306 l-2 250 -22 -3 c-32 -5 -30 26 2 38 l25 10 0 215 0
215 -23 0 c-12 0 -37 -4 -55 -9 l-32 -10 -2 52 c-2 78 -2 78 -21 88 -22 13
-22 28 0 44 14 10 17 34 20 131 3 116 -7 286 -15 252 -2 -10 -11 -18 -19 -18
-9 0 -22 8 -30 18 -12 16 -13 15 -11 -8z m113 -1009 c3 -5 -2 -17 -11 -26 -19
-19 -40 -6 -31 19 7 17 32 21 42 7z"/>
<path d="M5725 3628 c-11 -13 -19 -26 -17 -30 1 -5 -4 -8 -12 -8 -10 0 -12 7
-8 22 3 14 2 19 -6 14 -7 -4 -12 -15 -12 -25 0 -19 -42 -47 -58 -37 -5 3 -20
-10 -33 -29 -26 -38 -31 -40 -59 -25 -15 8 -19 5 -24 -24 -4 -19 -12 -36 -19
-39 -9 -3 -12 -118 -12 -496 0 -459 1 -493 18 -502 9 -6 17 -16 17 -24 0 -8
10 -31 22 -51 22 -37 22 -38 29 -13 5 18 7 19 8 5 1 -15 6 -17 30 -13 27 6 29
4 35 -31 3 -20 6 -50 6 -65 0 -27 36 -87 52 -87 4 0 8 172 8 382 0 209 1 383
3 384 2 2 14 5 28 8 13 2 23 9 21 16 -1 7 2 8 10 4 7 -5 24 -7 38 -6 l25 3 -3
-197 c-2 -133 1 -201 8 -208 8 -8 10 77 7 304 -3 173 -5 417 -5 543 -1 221 -1
227 -21 227 -11 0 -23 5 -26 10 -10 16 -29 12 -50 -12z m80 -18 c3 -5 -1 -10
-10 -10 -9 0 -13 5 -10 10 3 6 8 10 10 10 2 0 7 -4 10 -10z m-34 -403 c25 -7
24 -23 -2 -38 -29 -15 -37 -2 -31 46 4 25 7 32 10 19 2 -12 12 -24 23 -27z
m-61 -27 c0 -13 -38 -32 -51 -25 -14 10 9 35 32 35 11 0 19 -4 19 -10z m-80
-20 c0 -6 -7 -13 -15 -16 -20 -8 -48 3 -40 16 8 13 55 13 55 0z m-90 -14 c0
-13 -20 -26 -41 -26 -16 0 -9 28 9 33 29 8 32 7 32 -7z m207 -28 c-3 -7 -5 -2
-5 12 0 14 2 19 5 13 2 -7 2 -19 0 -25z m-107 -288 c0 -47 -4 -80 -10 -80 -6
0 -10 33 -10 80 0 47 4 80 10 80 6 0 10 -33 10 -80z m-74 -396 c-6 -12 -13
-19 -16 -15 -3 5 -11 10 -19 12 -11 4 -11 8 3 21 9 9 16 22 16 29 0 8 6 5 13
-5 10 -14 11 -24 3 -42z m94 46 c0 -15 -38 -32 -45 -20 -3 5 -3 15 0 20 8 13
45 13 45 0z"/>
<path d="M5472 3620 c0 -14 2 -19 5 -12 2 6 2 18 0 25 -3 6 -5 1 -5 -13z"/>
<path d="M5208 3592 c-21 -4 -34 -42 -18 -52 9 -5 9 -9 1 -14 -17 -11 -13 -30
10 -57 20 -23 21 -24 35 -5 15 21 15 24 18 93 1 42 -1 44 -46 35z"/>
<path d="M1587 3553 c-15 -15 -33 -18 -104 -16 -47 2 -91 -1 -97 -6 -6 -4 -24
-11 -41 -15 -16 -4 -44 -18 -62 -32 -17 -13 -35 -24 -38 -24 -4 0 -20 -11 -37
-25 -16 -14 -36 -25 -44 -25 -17 0 -40 -23 -76 -75 -43 -64 -58 -109 -64 -203
-9 -118 -15 -114 170 -110 20 1 37 -8 55 -29 14 -16 39 -36 54 -43 16 -8 32
-21 37 -30 5 -9 14 -72 20 -141 15 -173 16 -176 51 -184 24 -5 39 -1 71 21 35
25 50 28 112 29 64 0 75 3 101 28 16 15 33 27 37 27 17 0 27 79 33 255 6 157
4 202 -9 255 -9 36 -22 115 -30 175 -8 61 -19 122 -25 137 -18 47 -81 64 -114
31z m8 -297 c27 -27 31 -57 40 -271 8 -186 -13 -238 -98 -252 -31 -5 -40 -1
-66 28 -29 31 -31 39 -31 109 1 163 18 338 36 366 32 47 83 56 119 20z"/>
<path d="M5111 3528 c-1 -24 0 -63 2 -85 1 -22 16 -14 23 12 7 30 -3 95 -16
95 -5 0 -9 -10 -9 -22z"/>
<path d="M7490 3474 c-16 -41 -12 -82 11 -105 l22 -22 13 24 c14 26 17 70 8
107 -9 31 -42 29 -54 -4z"/>
<path d="M7665 3489 c-11 -17 -7 -117 6 -141 11 -20 12 -21 21 -2 6 10 18 25
26 32 14 10 14 16 4 32 -6 11 -12 30 -12 43 0 36 -31 60 -45 36z"/>
<path d="M5391 3437 c-6 -8 -9 -21 -5 -30 3 -8 1 -18 -5 -22 -6 -3 -11 -1 -11
6 0 15 -30 38 -51 39 -9 0 -24 -16 -33 -35 -17 -36 -36 -47 -36 -20 0 7 -7 18
-17 23 -10 6 -14 16 -10 26 4 9 2 16 -3 16 -6 0 -10 -11 -10 -25 0 -14 -4 -25
-10 -25 -5 0 -10 -7 -10 -15 0 -8 -7 -15 -15 -15 -8 0 -15 -4 -15 -10 0 -5 -7
-7 -16 -3 -8 3 -13 11 -11 17 3 6 -2 17 -9 24 -11 10 -14 10 -16 0 -2 -23 -5
-33 -15 -58 -8 -19 -7 -30 6 -46 15 -20 16 -21 23 -4 10 26 27 34 43 20 20
-16 20 -113 1 -129 -17 -15 -46 -4 -46 18 0 10 -5 7 -13 -9 -7 -14 -21 -25
-32 -25 -18 0 -20 7 -20 68 0 58 -2 67 -18 67 -17 0 -19 -8 -17 -62 3 -83 2
-90 -11 -83 -6 4 -8 13 -5 21 3 8 2 29 -2 47 -5 24 -8 10 -12 -58 -8 -150 -6
-799 3 -817 7 -14 18 -16 49 -12 23 2 45 7 49 10 5 3 10 29 11 57 l2 52 3 -47
c3 -32 9 -48 18 -48 23 0 276 87 288 99 19 19 17 632 -2 654 -11 14 -11 20 0
33 10 12 13 53 13 155 0 139 -8 175 -33 146z m-21 -156 c0 -9 -110 -34 -118
-26 -9 9 7 18 45 25 55 11 73 11 73 1z m-2 -173 c-5 -15 -58 -24 -58 -10 0 15
12 22 38 22 14 0 22 -5 20 -12z m-98 -23 c0 -9 -9 -15 -25 -15 -16 0 -25 6
-25 15 0 9 9 15 25 15 16 0 25 -6 25 -15z m-90 -14 c0 -11 -40 -22 -52 -15 -5
3 -6 10 -3 15 8 12 55 12 55 0z m-100 -15 c0 -14 -21 -26 -46 -26 -22 0 -16
20 9 30 31 12 37 12 37 -4z m296 -292 l0 -99 -3 93 c-2 50 -5 92 -6 92 -1 0
-27 -7 -57 -15 -66 -18 -60 -17 -60 -6 0 9 98 41 115 37 6 -2 10 -45 11 -102z
m-66 -39 c0 -14 -4 -25 -10 -25 -11 0 -14 33 -3 43 11 11 13 8 13 -18z m85
-115 c13 -21 7 -102 -8 -117 -23 -23 -37 -7 -37 43 0 64 26 105 45 74z"/>
<path d="M5366 2593 c-9 -10 -7 -93 3 -93 12 0 21 26 21 60 0 29 -12 45 -24
33z"/>
<path d="M4630 3381 c0 -33 5 -63 10 -66 6 -3 10 3 10 14 0 11 5 23 10 26 14
9 12 47 -4 68 -21 28 -26 20 -26 -42z"/>
<path d="M4529 3408 c-24 -15 -30 -24 -26 -43 2 -14 -2 -30 -8 -35 -10 -8 -15
-3 -20 21 -10 43 -26 24 -28 -35 -2 -46 10 -63 20 -27 4 18 7 18 39 5 78 -32
113 -6 111 81 -2 47 -4 50 -29 51 -15 1 -42 -8 -59 -18z"/>
<path d="M7746 3401 c-3 -5 1 -14 9 -21 12 -10 15 -10 15 3 0 19 -16 31 -24
18z"/>
<path d="M3870 3371 c0 -19 22 -23 38 -7 15 15 14 16 -11 16 -15 0 -27 -4 -27
-9z"/>
<path d="M269 3306 c-12 -12 -124 -27 -196 -26 l-73 0 0 -322 1 -323 52 59
c29 33 69 76 91 95 267 248 352 350 343 410 -4 25 -35 61 -54 61 -7 0 -13 3
-13 8 0 20 -135 54 -151 38z"/>
<path d="M4990 3289 c0 -11 4 -18 10 -14 5 3 7 12 3 20 -7 21 -13 19 -13 -6z"/>
<path d="M6400 3290 c-8 -5 -48 -14 -87 -20 -60 -10 -73 -15 -73 -30 0 -15 8
-18 47 -17 l48 2 -3 -231 c-3 -199 -1 -236 13 -263 14 -28 14 -34 0 -53 -11
-17 -15 -48 -15 -120 0 -54 4 -98 9 -98 5 0 23 37 41 83 19 45 42 99 52 120
22 44 16 62 -14 46 -16 -8 -19 -8 -13 1 4 7 1 16 -6 21 -10 6 -7 9 12 9 14 0
34 9 45 21 17 19 19 39 19 243 1 270 -1 288 -35 291 -14 2 -32 -1 -40 -5z"/>
<path d="M5147 3273 c-11 -10 -8 -83 3 -83 6 0 10 20 10 45 0 46 -2 50 -13 38z"/>
<path d="M4563 3263 c-7 -3 -13 -14 -13 -24 0 -47 -56 -93 -84 -70 -34 29 -36
4 -36 -523 0 -284 2 -522 5 -527 4 -5 17 -6 31 -3 19 5 23 3 18 -9 -3 -9 -17
-23 -30 -32 l-24 -15 0 -329 c0 -180 3 -331 7 -334 8 -9 60 68 114 173 24 47
47 87 50 90 3 3 19 31 36 63 36 66 33 67 -58 36 -33 -12 -62 -19 -64 -17 -5 4
-6 246 -6 746 1 289 4 373 14 376 6 3 24 7 39 10 14 3 29 14 31 24 4 16 5 16
6 -1 1 -17 17 -17 69 -1 9 3 12 -72 12 -350 0 -316 2 -355 16 -360 14 -5 14
-9 3 -23 -19 -22 -27 -337 -9 -331 7 2 32 42 56 88 42 82 44 88 44 178 0 89
-1 93 -20 87 -14 -4 -20 -2 -20 8 0 8 9 17 20 20 17 4 20 14 21 74 0 64 0 588
-1 861 0 74 -4 122 -10 122 -5 0 -10 -6 -10 -14 0 -19 -37 -27 -65 -14 -20 9
-27 6 -50 -18 -15 -16 -33 -28 -41 -26 -10 2 -14 -9 -15 -40 -1 -35 -4 -28
-13 33 -8 53 -15 75 -23 72z m34 -205 c-2 -13 -4 -5 -4 17 -1 22 1 32 4 23 2
-10 2 -28 0 -40z m0 -60 c-3 -7 -5 -2 -5 12 0 14 2 19 5 13 2 -7 2 -19 0 -25z
m172 -12 c-2 -2 -16 -7 -32 -11 -21 -6 -27 -4 -27 8 0 17 39 28 54 15 5 -4 8
-10 5 -12z m-109 -16 c0 -6 -13 -13 -29 -16 -17 -4 -32 -14 -34 -23 -3 -9 -5
-1 -6 17 -1 30 1 32 34 32 19 0 35 -5 35 -10z m-120 -24 c0 -8 -13 -16 -30
-18 -36 -5 -44 0 -29 19 15 17 59 17 59 -1z"/>
<path d="M5077 3263 c-11 -10 -8 -93 3 -93 6 0 10 23 10 50 0 51 -1 55 -13 43z"/>
<path d="M3572 3160 c-47 -11 -51 -20 -11 -21 28 -1 23 -4 -26 -14 -33 -7 -60
-14 -60 -15 0 -1 -15 -3 -34 -6 -19 -2 -36 -6 -37 -7 -5 -5 -8 -58 -6 -105 2
-39 4 -42 25 -37 13 4 31 7 40 9 9 1 27 12 40 24 21 20 28 21 51 11 14 -7 26
-17 27 -23 0 -6 2 -21 3 -34 4 -36 -42 -63 -98 -59 -25 3 -46 0 -46 -4 0 -5
-7 -9 -15 -9 -20 0 -37 -45 -33 -89 2 -28 7 -36 22 -36 29 0 30 -20 2 -33 -25
-11 -25 -12 -28 -169 -2 -87 0 -196 3 -243 l5 -85 2 82 c1 45 6 84 11 87 13 8
25 -224 12 -237 -11 -11 -17 -1 -24 43 -4 22 -10 -262 -9 -398 1 -42 -3 -55
-19 -65 -25 -16 -24 -26 3 -19 18 4 20 2 15 -19 -4 -13 -7 -30 -7 -37 0 -7 -4
-10 -10 -7 -5 3 -10 16 -10 28 0 18 -2 19 -10 7 -5 -8 -10 -25 -10 -37 0 -13
-5 -23 -10 -23 -6 0 -10 7 -8 16 3 19 -11 27 -29 16 -9 -6 -17 -67 -14 -108 1
-12 32 -8 89 10 14 5 22 3 22 -4 0 -6 -6 -12 -12 -14 -7 -2 -34 -11 -60 -21
l-48 -17 0 -94 c0 -107 5 -115 65 -90 21 9 43 16 49 16 6 -1 -17 -12 -51 -27
l-63 -25 -2 -67 -2 -66 -3 59 c-3 47 -8 59 -23 63 -18 5 -18 6 1 26 17 19 19
32 16 105 -2 45 -7 85 -10 88 -3 4 -27 -1 -53 -10 -26 -9 -50 -14 -53 -11 -8
9 15 26 38 28 11 1 21 6 21 11 0 5 3 6 6 3 4 -3 15 -2 25 4 16 8 19 21 18 82
l-1 72 -13 -40 c-11 -33 -13 -36 -14 -15 l-2 25 -17 -21 c-10 -11 -23 -19 -29
-17 -8 3 -13 -13 -16 -44 l-3 -48 -2 52 c-1 28 -6 63 -12 78 -8 22 -13 24 -29
15 -11 -6 -22 -6 -25 -1 -6 10 10 25 35 34 10 3 18 20 21 44 6 51 -1 971 -8
1050 -5 59 -7 62 -25 52 -11 -6 -28 -22 -37 -37 -13 -21 -27 -28 -57 -30 -22
-2 -42 -6 -45 -9 -3 -2 -7 -124 -8 -271 -3 -215 -7 -268 -18 -277 -12 -8 -14
-58 -12 -290 l3 -280 27 0 c42 -1 44 -12 4 -36 l-36 -21 0 -433 c0 -238 3
-447 6 -464 6 -30 8 -31 43 -25 54 11 157 60 165 79 3 9 6 27 6 39 0 16 9 25
35 35 20 7 47 25 61 39 16 16 28 22 31 16 3 -9 19 -6 56 7 62 23 58 22 51 4
-4 -8 -1 -21 5 -29 10 -12 18 -11 51 5 21 10 44 19 50 19 11 0 25 29 34 71 6
26 34 44 81 51 24 4 33 34 34 121 1 61 -1 69 -19 74 -11 3 -17 9 -14 14 3 5 9
7 14 4 12 -7 19 45 17 127 -1 66 -1 67 -26 64 -14 -2 -39 -9 -54 -15 -35 -13
-37 -14 -37 -1 0 5 12 13 28 16 15 4 39 13 53 22 26 15 27 23 10 86 -2 5 2 12
8 16 8 4 9 19 2 46 -8 36 -9 37 -10 9 -1 -23 -4 -27 -11 -15 -5 8 -7 23 -4 33
7 21 3 21 -41 3 -29 -13 -35 -13 -35 -1 0 7 16 19 35 25 29 10 34 14 24 26 -9
11 -8 14 4 14 9 0 19 5 23 12 5 7 3 8 -6 3 -8 -5 -18 -2 -26 9 -9 14 -14 14
-20 4 -5 -7 -9 -16 -9 -20 0 -5 -4 -9 -10 -10 -6 -2 -11 51 -13 140 l-3 142
-27 -20 c-36 -27 -60 -17 -68 26 -14 73 14 134 62 134 22 0 24 4 25 48 0 26 3
115 5 197 2 83 4 180 4 216 l0 66 83 18 c45 10 84 20 86 22 3 2 4 26 2 55 -1
35 -8 56 -19 64 -16 11 -16 13 1 31 24 27 25 138 1 129 -9 -3 -20 -6 -25 -6
-5 0 -9 -21 -9 -46 0 -27 -4 -43 -10 -39 -6 4 -10 72 -10 171 0 90 -3 164 -7
163 -5 -1 -23 -5 -41 -9z m64 -397 c-11 -11 -17 4 -9 23 7 18 8 18 11 1 2 -10
1 -21 -2 -24z m-42 8 c8 -13 -15 -29 -49 -33 -21 -2 -30 1 -30 12 0 20 68 39
79 21z m42 -68 c-10 -10 -19 5 -10 18 6 11 8 11 12 0 2 -7 1 -15 -2 -18z
m-536 -37 c0 -15 -30 -26 -72 -26 -59 0 -15 38 45 39 17 1 27 -4 27 -13z m400
-876 c0 -13 -61 -41 -72 -34 -15 10 -7 23 20 32 36 14 52 14 52 2z m-170 -220
c0 -5 -2 -10 -4 -10 -3 0 -8 5 -11 10 -3 6 -1 10 4 10 6 0 11 -4 11 -10z
m-130 -310 c0 -5 -5 -10 -11 -10 -5 0 -7 5 -4 10 3 6 8 10 11 10 2 0 4 -4 4
-10z m-35 -10 c3 -5 1 -10 -4 -10 -6 0 -11 5 -11 10 0 6 2 10 4 10 3 0 8 -4
11 -10z m380 -90 c-3 -5 -10 -10 -16 -10 -5 0 -9 5 -9 10 0 6 7 10 16 10 8 0
12 -4 9 -10z m-277 -111 c-18 -11 -20 -6 -12 37 l7 39 9 -34 c7 -25 6 -36 -4
-42z m112 57 c0 -3 -4 -8 -10 -11 -5 -3 -10 -1 -10 4 0 6 5 11 10 11 6 0 10
-2 10 -4z"/>
<path d="M4280 3140 c0 -5 5 -10 10 -10 6 0 10 5 10 10 0 6 -4 10 -10 10 -5 0
-10 -4 -10 -10z"/>
<path d="M4328 3143 c7 -3 16 -2 19 1 4 3 -2 6 -13 5 -11 0 -14 -3 -6 -6z"/>
<path d="M4245 3130 c-19 -8 -19 -9 3 -9 12 -1 22 4 22 9 0 6 -1 10 -2 9 -2 0
-12 -4 -23 -9z"/>
<path d="M3640 3088 c0 -49 5 -47 13 5 3 20 2 37 -4 37 -5 0 -9 -19 -9 -42z"/>
<path d="M4029 3076 c-15 -22 -26 -31 -31 -24 -5 9 -11 8 -22 -1 -12 -10 -20
-10 -38 0 -13 7 -26 16 -29 21 -10 16 -40 -60 -50 -127 -12 -77 -9 -110 10
-110 23 0 25 -26 3 -31 -18 -5 -19 -16 -21 -132 -1 -70 -5 -130 -9 -133 -4 -4
-22 -10 -39 -14 -28 -5 -33 -4 -34 12 -1 13 -3 11 -9 -7 -4 -14 -8 -161 -9
-327 l-1 -303 30 0 c38 0 38 -10 0 -39 l-31 -22 3 -414 c2 -227 6 -416 9 -420
4 -3 29 4 55 17 48 23 49 25 60 83 7 33 12 54 13 47 1 -9 6 -10 19 -3 13 7 22
7 30 -1 16 -16 36 0 21 18 -9 11 -7 14 15 14 26 0 26 1 26 75 l0 75 -27 -6
c-16 -4 -37 -13 -48 -20 -30 -22 -45 -17 -44 14 0 19 2 22 7 11 8 -20 26 -18
72 8 l35 20 3 88 c3 87 3 88 -20 81 -13 -3 -30 -6 -38 -6 -8 0 -22 -5 -30 -10
-13 -9 -13 -11 0 -21 13 -9 13 -10 -2 -5 -12 3 -18 -2 -21 -17 -2 -12 -5 37
-6 108 -1 72 -3 189 -6 260 -2 72 -6 249 -8 395 -2 146 -2 221 0 167 l4 -98
47 4 c26 3 58 9 72 14 14 6 39 14 56 17 l31 7 3 -173 c2 -174 1 -216 -4 -253
-2 -11 -4 -143 -5 -293 -1 -212 -4 -272 -13 -271 -7 1 -21 -1 -30 -5 -15 -7
-18 -21 -18 -76 0 -62 2 -69 19 -67 11 1 23 10 26 22 5 15 9 8 17 -30 5 -27
11 -51 12 -53 6 -5 121 50 128 62 4 6 8 43 8 83 0 39 4 74 9 77 5 4 7 -2 4
-13 -7 -26 26 -32 62 -9 29 17 29 18 6 18 -18 0 -21 3 -12 13 6 8 8 17 4 20
-3 4 2 9 11 13 9 3 16 15 16 25 0 16 -5 18 -27 13 -16 -4 -38 -13 -50 -20
l-23 -14 -1 280 c-1 154 -2 286 -3 293 -1 7 -14 11 -34 9 -34 -2 -41 8 -17 28
8 7 15 9 15 6 0 -4 8 -2 18 3 15 8 18 20 16 58 -1 26 -1 80 -1 118 5 592 -1
925 -15 875 -4 -14 -8 -48 -8 -75 0 -59 -21 -95 -55 -95 -26 0 -31 10 -40 85
-16 131 -24 141 -66 81z m-22 -88 c-3 -8 -6 -5 -6 6 -1 11 2 17 5 13 3 -3 4
-12 1 -19z m159 -109 c9 -15 -14 -29 -48 -29 -34 0 -37 17 -5 30 30 12 45 12
53 -1z m-191 -9 c-4 -6 7 -10 24 -10 21 0 31 -5 31 -15 0 -8 -9 -15 -20 -15
-11 0 -23 -7 -26 -15 -11 -28 -24 -15 -24 25 0 22 5 40 11 40 5 0 7 -4 4 -10z
m5 -90 c0 -5 -4 -10 -10 -10 -5 0 -10 5 -10 10 0 6 5 10 10 10 6 0 10 -4 10
-10z m-93 -1387 c-3 -10 -5 -4 -5 12 0 17 2 24 5 18 2 -7 2 -21 0 -30z m183
-79 c0 -8 -5 -12 -10 -9 -6 4 -8 11 -5 16 9 14 15 11 15 -7z"/>
<path d="M3436 2923 c-6 -14 -5 -15 5 -6 7 7 10 15 7 18 -3 3 -9 -2 -12 -12z"/>
<path d="M681 2879 c-12 -20 -21 -60 -25 -108 -13 -158 -11 -171 22 -171 9 0
31 -9 49 -20 19 -11 35 -15 38 -10 8 13 -13 243 -26 291 -13 50 -35 56 -58 18z"/>
<path d="M1086 2896 c-26 -8 -52 -20 -57 -27 -12 -19 -11 -126 1 -134 18 -11
69 19 81 48 7 15 28 40 48 55 44 33 51 41 44 59 -6 16 -52 16 -117 -1z"/>
<path d="M2626 2855 c-12 -9 -29 -12 -44 -8 -15 3 -27 1 -33 -8 -5 -8 -9 -77
-9 -154 1 -92 -4 -160 -14 -200 -12 -49 -13 -81 -4 -175 6 -71 7 -157 2 -225
-9 -106 -10 -110 -34 -115 -14 -3 -42 -12 -62 -20 l-38 -14 0 -73 c0 -59 3
-73 15 -73 9 0 18 -7 22 -16 5 -13 14 -15 44 -10 31 5 39 3 39 -9 0 -9 -8 -18
-17 -21 -61 -19 -70 -33 -77 -111 -2 -17 -11 -39 -20 -48 -36 -36 -12 -66 54
-67 16 0 19 -2 8 -5 -20 -5 -25 -33 -5 -33 22 0 40 18 34 34 -7 18 18 23 29 5
6 -10 47 -9 83 2 7 2 15 -1 18 -8 2 -6 -13 -17 -34 -23 -21 -7 -44 -18 -52
-24 -8 -6 -27 -11 -42 -12 -30 -2 -97 -50 -98 -71 -1 -7 -10 -13 -21 -13 -11
0 -20 -5 -20 -11 0 -6 -6 -9 -12 -6 -7 2 -12 9 -11 15 2 6 -18 14 -42 18 -50
7 -54 13 -25 39 11 10 16 23 13 29 -4 6 -9 22 -11 36 -1 14 -9 39 -16 55 -15
34 -13 164 4 205 9 22 8 91 -5 205 -21 200 -26 283 -21 362 4 50 2 94 -3 97
-4 3 -11 18 -14 34 -4 17 -16 33 -31 40 -22 10 -24 15 -19 49 3 21 10 40 14
43 5 3 15 21 22 40 20 46 5 94 -27 84 -11 -4 -27 -15 -34 -25 -7 -10 -28 -21
-48 -25 -59 -11 -71 -64 -18 -84 14 -6 28 -19 31 -30 3 -11 11 -20 18 -20 7 0
15 -7 19 -15 14 -37 -19 -62 -113 -86 -37 -9 -55 -20 -61 -34 -7 -18 -20 -279
-24 -490 -2 -82 -1 -91 21 -113 13 -13 30 -21 38 -18 8 3 16 -2 19 -12 3 -9 3
-125 1 -257 -2 -169 -8 -258 -18 -300 -11 -42 -12 -62 -5 -66 15 -10 12 -70
-4 -80 -9 -6 -13 -41 -15 -126 -1 -65 -5 -224 -8 -354 -7 -235 -2 -290 26
-273 7 4 9 -4 7 -22 -3 -24 1 -29 32 -36 66 -17 66 -16 25 -58 -32 -32 -39
-47 -40 -82 -1 -24 -5 -53 -9 -65 l-7 -23 238 0 238 1 55 80 c30 45 74 106 96
137 72 99 194 300 194 320 0 11 11 27 25 36 l25 16 0 794 c0 436 -3 795 -6
798 -2 3 -37 -1 -77 -8 -40 -8 -78 -14 -84 -14 -10 0 -13 39 -13 163 0 207 -5
237 -36 237 -32 0 -31 28 0 40 17 6 23 14 19 28 -4 16 -11 19 -49 14 -48 -5
-50 -2 -45 73 4 64 10 77 39 75 44 -3 49 -1 55 20 7 27 -2 60 -17 60 -6 0 -20
-7 -30 -15z m200 -782 c-11 -11 -19 6 -11 24 8 17 8 17 12 0 3 -10 2 -21 -1
-24z m4 -228 c0 -8 -4 -15 -10 -15 -5 0 -7 7 -4 15 4 8 8 15 10 15 2 0 4 -7 4
-15z m-10 -274 c0 -14 -12 -22 -46 -30 -26 -7 -49 -10 -51 -7 -9 9 8 26 25 26
9 1 28 7 42 15 32 18 30 18 30 -4z m-615 -202 c-7 -10 -26 -19 -72 -33 -34
-11 -30 20 5 32 37 14 75 15 67 1z m515 -877 c0 -7 -16 -15 -85 -41 -17 -6 12
21 37 34 27 15 48 18 48 7z m-200 -92 c0 -5 -8 -10 -18 -10 -10 0 -23 -5 -29
-11 -6 -6 -17 -9 -25 -6 -7 2 1 11 22 20 43 19 50 20 50 7z"/>
<path d="M1615 2515 c-27 -23 -30 -30 -31 -89 l0 -64 -82 -80 c-45 -44 -82
-85 -82 -92 0 -7 -7 -10 -16 -6 -9 4 -29 -8 -53 -32 -38 -36 -39 -38 -46 -132
-3 -52 -10 -97 -15 -100 -5 -3 -5 -12 0 -20 6 -8 10 -25 10 -37 0 -13 4 -23
10 -23 5 0 12 -11 16 -24 4 -18 17 -28 48 -37 l43 -13 -13 -48 c-9 -35 -10
-58 -3 -78 7 -19 7 -41 0 -67 -14 -50 -14 -53 4 -53 24 0 20 -91 -5 -113 -11
-9 -20 -29 -20 -44 0 -42 -23 -100 -52 -131 -14 -15 -28 -40 -32 -55 -8 -34
-51 -77 -77 -77 -11 0 -19 -5 -19 -11 0 -15 -118 -3 -144 14 -17 12 -22 11
-39 -6 -18 -18 -29 -19 -103 -14 -85 6 -109 14 -139 43 -12 13 -19 14 -28 5
-6 -6 -18 -11 -26 -11 -9 0 -27 -9 -40 -19 -27 -21 -67 -17 -80 8 -5 9 -12 33
-16 52 -8 45 -37 60 -102 53 -64 -7 -75 2 -63 48 8 29 18 38 53 52 63 24 93
20 140 -16 72 -56 83 -60 117 -43 18 9 32 26 36 43 4 15 14 39 22 53 12 22 13
35 3 72 -19 79 -14 157 15 215 40 80 67 94 204 105 14 1 27 5 30 8 3 3 31 25
63 48 55 42 77 77 62 101 -4 6 -7 42 -6 81 0 64 -10 116 -27 129 -4 3 -12 14
-18 25 -6 11 -22 22 -35 23 -13 2 -28 7 -33 12 -4 4 -23 -2 -42 -15 -31 -21
-42 -23 -108 -18 -63 5 -75 3 -92 -14 -41 -41 -74 -54 -156 -58 -66 -4 -88 -9
-117 -29 -39 -27 -112 -56 -142 -56 -27 0 -69 21 -69 35 0 6 -11 21 -24 34
l-23 22 -17 -25 c-9 -14 -16 -28 -16 -31 0 -6 -4 -12 -51 -67 -35 -43 -101
-70 -121 -50 -7 7 -20 12 -30 12 -10 0 -18 5 -18 10 0 6 -4 10 -10 10 -7 0
-10 -328 -10 -965 l0 -965 418 0 417 0 0 140 c0 132 1 141 23 162 22 22 24 22
37 5 7 -10 16 -56 20 -102 7 -81 8 -85 41 -107 39 -27 43 -49 12 -78 l-22 -20
396 0 396 0 -5 108 c-4 80 -1 123 11 170 13 48 16 89 12 170 -3 59 -8 217 -11
352 -3 135 -8 378 -11 540 -3 162 -8 298 -11 303 -2 4 4 19 15 35 32 47 46 92
33 105 -14 14 -14 55 0 109 8 31 9 98 3 235 l-9 192 -32 33 c-35 36 -41 64
-28 136 6 33 4 42 -6 42 -8 0 -23 2 -34 5 -12 3 -32 -5 -50 -20z m-1046 -904
c4 -6 29 -22 56 -36 28 -14 58 -35 68 -47 22 -27 22 -85 -2 -124 -38 -63 -92
-44 -106 35 -4 28 -15 47 -30 57 -25 16 -44 15 -180 -11 -38 -7 -73 -11 -76
-9 -4 2 -9 18 -11 34 -6 40 33 75 93 85 23 4 56 14 73 21 33 15 105 12 115 -5z
m-31 -607 c25 -18 28 -36 7 -54 -17 -14 -157 -50 -196 -50 -29 0 -38 13 -18
25 6 4 8 13 6 19 -3 8 13 19 41 29 26 8 65 22 87 31 50 19 46 19 73 0z m484
-581 c-4 -12 -40 -28 -46 -21 -2 1 -6 15 -10 31 -5 22 -3 27 13 27 11 0 23 6
27 12 9 15 23 -29 16 -49z m284 31 c11 -43 -1 -333 -14 -346 -9 -9 -12 -7 -12
8 0 11 -4 24 -9 29 -6 6 -12 29 -15 53 -3 23 -15 60 -27 82 l-22 39 22 50 c11
27 21 58 21 68 0 44 46 58 56 17z m-757 -210 c2 -2 -10 -4 -27 -4 -18 0 -35 0
-39 -1 -4 0 -9 5 -11 11 -3 8 7 9 34 4 22 -4 41 -8 43 -10z m141 -66 c0 -23
-47 -71 -61 -63 -8 5 -10 64 -2 78 2 4 17 7 34 7 23 0 29 -4 29 -22z"/>
<path d="M5817 2513 c-11 -11 -8 -373 3 -373 6 0 10 70 10 190 0 105 -1 190
-3 190 -2 0 -7 -3 -10 -7z"/>
<path d="M1420 2448 c-29 -31 -25 -41 12 -34 37 7 52 25 36 43 -15 18 -24 16
-48 -9z"/>
<path d="M5002 2217 c-6 -7 -11 -41 -12 -77 -2 -85 -3 -82 20 -70 17 9 20 21
20 85 0 73 -7 88 -28 62z"/>
<path d="M3463 2036 c3 -8 -1 -17 -9 -20 -14 -5 -19 -51 -8 -80 10 -26 31 -18
42 14 14 38 4 100 -15 100 -9 0 -13 -6 -10 -14z"/>
<path d="M5797 2034 c-8 -8 1 -24 14 -24 5 0 9 7 9 15 0 15 -12 20 -23 9z"/>
<path d="M3160 1960 c0 -5 5 -10 11 -10 5 0 7 5 4 10 -3 6 -8 10 -11 10 -2 0
-4 -4 -4 -10z"/>
<path d="M3160 1848 c0 -41 4 -67 8 -60 13 19 14 119 2 127 -6 4 -10 -18 -10
-67z"/>
<path d="M3192 1855 c0 -27 2 -42 5 -32 2 9 9 17 14 17 5 0 9 12 9 26 0 14 -4
23 -9 20 -5 -4 -12 0 -14 6 -3 7 -5 -9 -5 -37z"/>
<path d="M3243 1865 c0 -22 2 -30 4 -17 2 12 2 30 0 40 -3 9 -5 -1 -4 -23z"/>
<path d="M4587 1863 c-10 -10 -8 -83 2 -83 5 0 9 20 9 45 1 46 0 50 -11 38z"/>
<path d="M5601 1844 c0 -11 3 -14 6 -6 3 7 2 16 -1 19 -3 4 -6 -2 -5 -13z"/>
<path d="M2275 1810 c3 -5 8 -10 11 -10 2 0 4 5 4 10 0 6 -5 10 -11 10 -5 0
-7 -4 -4 -10z"/>
<path d="M3547 1783 c-4 -3 -7 -11 -7 -17 0 -6 5 -5 12 2 6 6 9 14 7 17 -3 3
-9 2 -12 -2z"/>
<path d="M5361 1764 c0 -11 3 -14 6 -6 3 7 2 16 -1 19 -3 4 -6 -2 -5 -13z"/>
<path d="M4021 1734 c0 -11 3 -14 6 -6 3 7 2 16 -1 19 -3 4 -6 -2 -5 -13z"/>
<path d="M3948 1713 c7 -3 16 -2 19 1 4 3 -2 6 -13 5 -11 0 -14 -3 -6 -6z"/>
<path d="M4023 1640 c0 -41 2 -58 4 -37 2 20 2 54 0 75 -2 20 -4 3 -4 -38z"/>
<path d="M3195 1671 c-7 -13 16 -26 24 -14 3 6 13 13 21 16 9 3 4 6 -12 6 -15
1 -29 -3 -33 -8z"/>
<path d="M3910 1649 c0 -17 -4 -28 -10 -24 -6 4 -10 -15 -9 -52 1 -32 3 -51 6
-42 2 10 12 15 26 12 24 -4 46 11 64 44 19 34 -12 92 -49 93 -25 0 -28 -4 -28
-31z m57 -55 c-3 -3 -12 -4 -19 -1 -8 3 -5 6 6 6 11 1 17 -2 13 -5z"/>
<path d="M988 1633 l-48 -23 0 -105 c0 -95 2 -105 21 -115 11 -7 27 -9 34 -6
14 5 25 -22 25 -63 0 -13 -9 -39 -21 -58 -25 -40 -20 -73 14 -89 21 -9 26 -7
43 17 10 15 29 32 41 38 13 6 23 15 23 20 0 5 10 11 21 14 19 5 21 10 14 44
-9 51 -11 53 -50 53 -64 0 -83 72 -35 133 11 13 23 42 28 63 6 22 13 46 16 54
5 12 -4 21 -32 33 -21 9 -41 16 -43 16 -2 -1 -25 -12 -51 -26z"/>
<path d="M3166 1624 c-5 -12 -2 -15 10 -10 8 3 18 6 20 6 2 0 4 5 4 10 0 16
-27 11 -34 -6z"/>
<path d="M4041 1613 c-1 -18 4 -33 9 -33 12 0 12 17 0 45 -7 17 -9 15 -9 -12z"/>
<path d="M4258 1569 c3 -28 0 -54 -5 -58 -5 -3 -13 -21 -16 -39 l-7 -34 33 19
c33 20 47 51 29 62 -6 4 -12 28 -13 54 -2 28 -8 47 -14 47 -8 0 -11 -16 -7
-51z"/>
<path d="M4020 1454 c0 -87 1 -92 20 -87 18 5 20 14 20 94 0 82 -1 88 -20 86
-18 -1 -20 -8 -20 -93z"/>
<path d="M4835 1540 c-8 -13 -1 -24 14 -19 6 3 7 10 2 18 -6 10 -10 10 -16 1z"/>
<path d="M4810 1509 c0 -5 9 -9 20 -9 11 0 20 2 20 4 0 2 -9 6 -20 9 -11 3
-20 1 -20 -4z"/>
<path d="M2286 1484 c-10 -27 3 -30 27 -6 l21 22 -21 0 c-11 0 -24 -7 -27 -16z"/>
<path d="M4870 1479 c0 -5 5 -7 10 -4 6 3 10 8 10 11 0 2 -4 4 -10 4 -5 0 -10
-5 -10 -11z"/>
<path d="M4143 1090 c-50 -23 -64 -34 -69 -57 -10 -40 -15 -47 -25 -32 -12 20
-39 -20 -33 -47 7 -26 -6 -37 -26 -23 -12 8 -12 12 -2 16 6 2 12 11 12 19 0
12 -5 11 -26 -2 -21 -14 -27 -15 -34 -4 -10 16 -30 4 -30 -20 0 -10 -7 -20
-15 -24 -10 -3 -15 1 -15 14 0 32 -18 33 -75 4 l-55 -26 -2 -267 c-2 -146 -2
-337 0 -424 4 -164 -1 -187 -38 -187 -17 0 -18 22 -19 359 -1 346 -4 408 -21
380 -5 -6 -15 -9 -24 -6 -12 5 -14 14 -10 37 6 30 -3 39 -22 21 -5 -5 -20 -11
-34 -13 -14 -2 -24 -9 -22 -16 3 -15 -13 -16 -36 -1 -13 8 -30 5 -75 -15 -31
-13 -57 -30 -57 -35 0 -9 -87 -53 -107 -53 -4 -1 -32 -14 -61 -31 -30 -16 -67
-30 -82 -29 -30 1 -178 -67 -198 -91 -12 -14 -17 -159 -14 -404 l2 -133 731 0
732 0 -7 428 c-7 433 -16 626 -30 639 -4 5 -14 -1 -22 -11 -14 -20 -14 -20
-15 0 -1 10 -1 26 0 35 1 12 -6 14 -34 11 -19 -2 -38 -8 -41 -13 -8 -14 -24
-11 -24 5 0 26 -13 25 -77 -4z m197 -200 c0 -5 -4 -10 -10 -10 -5 0 -10 5 -10
10 0 6 5 10 10 10 6 0 10 -4 10 -10z m-333 -162 c-3 -8 -6 -5 -6 6 -1 11 2 17
5 13 3 -3 4 -12 1 -19z m-339 -160 c-6 -18 -28 -21 -28 -4 0 9 7 16 16 16 9 0
14 -5 12 -12z m682 -188 c0 -9 -51 -40 -67 -40 -4 0 4 11 17 24 26 26 50 33
50 16z m-693 -32 c-3 -8 -6 -5 -6 6 -1 11 2 17 5 13 3 -3 4 -12 1 -19z m398
-138 c-3 -5 -12 -10 -18 -10 -7 0 -6 4 3 10 19 12 23 12 15 0z m-390 -68 c0
-18 -20 -15 -23 4 -3 10 1 15 10 12 7 -3 13 -10 13 -16z"/>
<path d="M3350 850 c-9 -6 -10 -10 -3 -10 6 0 15 5 18 10 8 12 4 12 -15 0z"/>
<path d="M3282 823 c-23 -8 -40 -19 -36 -24 7 -12 34 -12 34 1 0 5 11 12 25
16 14 3 25 10 25 15 0 5 -1 9 -2 8 -2 0 -22 -7 -46 -16z"/>
<path d="M3665 821 c-3 -5 -1 -12 5 -16 5 -3 10 1 10 9 0 18 -6 21 -15 7z"/>
<path d="M3183 786 c-13 -6 -23 -14 -23 -17 0 -10 39 1 46 13 9 14 2 15 -23 4z"/>
<path d="M2813 375 c-39 -46 -134 -194 -178 -277 -13 -26 -29 -49 -35 -53 -5
-3 -15 -15 -20 -26 -10 -18 -6 -19 143 -19 l154 0 1 193 c2 253 0 259 -65 182z"/>
</g>
</svg>
