<?xml version="1.0" encoding="UTF-8" standalone="no"?>
<!-- Generator: Adobe Illustrator 25.0.1, SVG Export Plug-In . SVG Version: 6.00 Build 0)  -->

<svg
   version="1.1"
   id="Layer_1"
   x="0px"
   y="0px"
   width="180.9px"
   height="90px"
   viewBox="0 0 180.9 90"
   style="enable-background:new 0 0 180.9 90;"
   xml:space="preserve"
   sodipodi:docname="logo-dark.svg"
   inkscape:version="1.2.1 (9c6d41e410, 2022-07-14)"
   xmlns:inkscape="http://www.inkscape.org/namespaces/inkscape"
   xmlns:sodipodi="http://sodipodi.sourceforge.net/DTD/sodipodi-0.dtd"
   xmlns="http://www.w3.org/2000/svg"
   xmlns:svg="http://www.w3.org/2000/svg"><defs
   id="defs1300" /><sodipodi:namedview
   id="namedview1298"
   pagecolor="#ffffff"
   bordercolor="#000000"
   borderopacity="0.25"
   inkscape:showpageshadow="2"
   inkscape:pageopacity="0.0"
   inkscape:pagecheckerboard="0"
   inkscape:deskcolor="#d1d1d1"
   showgrid="false"
   inkscape:zoom="3.3305695"
   inkscape:cx="88.273192"
   inkscape:cy="51.943069"
   inkscape:window-width="1920"
   inkscape:window-height="1017"
   inkscape:window-x="-8"
   inkscape:window-y="212"
   inkscape:window-maximized="1"
   inkscape:current-layer="g1295" />
<style
   type="text/css"
   id="style1283">
	.st0{fill:#B90D35;}
	.st1{fill:#EC1846;}
	.st2{fill:#8A0021;}
	.st3{fill:#FFFFFF;}
</style>
<g
   id="g1295">
	<path
   class="st0"
   d="M24.9,59.8c-0.5,0-0.9-0.3-1-0.8l-2.2-6.7c-0.2-0.6,0.1-1.2,0.7-1.4c0.6-0.2,1.2,0.1,1.4,0.7l2.2,6.7   c0.2,0.6-0.1,1.2-0.7,1.4C25.1,59.8,25,59.8,24.9,59.8"
   id="path1285" />
	<path
   class="st0"
   d="M19,41.7c-0.5,0-0.9-0.3-1-0.8l-2.2-6.7c-0.2-0.6,0.1-1.2,0.7-1.4c0.6-0.2,1.2,0.1,1.4,0.7l2.2,6.7   c0.2,0.6-0.1,1.2-0.7,1.4C19.2,41.7,19.1,41.7,19,41.7"
   id="path1287" />
	<path
   class="st1"
   d="M38,40.7c-0.1-0.4-0.5-0.9-1.6-0.9h0l-11.7,0c-0.1,0-0.5-0.1-0.6-0.4l-3.9-12c-0.2-0.6-0.8-0.9-1.4-0.7   c-0.6,0.2-0.9,0.8-0.7,1.4L22,40c0.5,1.5,1.9,1.9,2.6,1.9h0l9.6,0l-7.7,5.6c-1.3,0.9-1.2,2.4-1,3.1l3.9,12c0.1,0.5,0.6,0.8,1,0.8   c0.1,0,0.2,0,0.3-0.1c0.6-0.2,0.9-0.8,0.7-1.4l-3.9-12c0-0.1-0.1-0.5,0.2-0.7l9.5-6.9C37.9,41.9,38.2,41.3,38,40.7"
   id="path1289" />
	<path
   class="st2"
   d="M8.1,63.3c-0.3,0-0.5-0.1-0.7-0.2c-0.5-0.4-0.7-1.1-0.4-1.9L10.6,50c0.1-0.4-0.1-0.6-0.2-0.7l-9.5-6.9   c-0.9-0.6-0.9-1.3-0.8-1.7c0.2-0.6,0.8-1,1.6-1h0l13,0c0.6,0,1.1,0.5,1.1,1.1c0,0.6-0.5,1.1-1.1,1.1h0l-10.8,0l7.8,5.6   c0.6,0.4,1.5,1.6,1,3.1l-3,9.1l8.7-6.4c0.5-0.4,1.2-0.2,1.5,0.2c0.4,0.5,0.2,1.2-0.2,1.5L9.2,62.8C8.8,63.1,8.4,63.3,8.1,63.3"
   id="path1291" />
	<path
   class="st3"
   d="M56.6,56.3h3.9V39.7h-3.9v6.4h-7.2v-6.4h-3.9v16.5h3.9v-6.9h7.2V56.3z M80.7,56.3l-6.2-14.7   c-0.6-1.5-1.5-2-3-2c-1.6,0-2.3,0.5-3,2l-6.2,14.7h4.1c0,0,5-12.7,5-12.7c0,0,5,12.7,5,12.7H80.7z M90.4,54.5l5.9-14.7h-4.2   l-4.7,12.6l-4.7-12.6h-4.2l5.9,14.7c0.5,1.3,1.5,2,2.9,2C88.9,56.4,89.8,55.8,90.4,54.5 M101,56.3h10.7V53h-8.9   c-0.6,0-0.7,0-0.7-0.7v-2.9h9.3v-3.3h-9.3v-2.6c0-0.6,0-0.7,0.7-0.7h8.8v-3.3H101c-1.8,0-2.7,1-2.7,2.8v10.9   C98.3,55.3,99.2,56.3,101,56.3 M117.2,56.3h10.6V53H119c-0.6,0-0.7,0-0.7-0.7V39.7h-3.9v13.7C114.4,55.3,115.4,56.3,117.2,56.3    M133.1,44.6c0-0.7,0.3-1.2,0.7-1.4c0.4-0.2,0.9-0.2,2.4-0.2h6.7v-3.2h-7.5c-2,0-2.9,0.1-3.7,0.4c-1.7,0.6-2.8,2.5-2.8,4.5   c0,1.5,0.6,2.9,1.7,3.8c0.9,0.7,2.1,1,4.1,1h2.3c0.8,0,1.4,0.1,1.7,0.3c0.6,0.3,0.9,0.9,0.9,1.6c0,0.6-0.3,1.1-0.8,1.4   c-0.4,0.2-1,0.3-2.3,0.3h-6.9v3.2h7.6c2.5,0,3.6-0.2,4.4-0.8c1.2-0.9,2-2.5,2-4.2c0-1.5-0.5-3-1.4-3.8c-1-0.9-2.2-1.3-4.6-1.3h-1.9   c-1.2,0-1.7-0.1-2.2-0.3C133.3,45.6,133.1,45.2,133.1,44.6 M158.9,56.3h4.1l-6.2-14.7c-0.6-1.5-1.5-2-3-2c-1.6,0-2.3,0.5-3,2   l-6.2,14.7h4.1c0,0,5-12.7,5-12.7C153.8,43.5,158.9,56.3,158.9,56.3 M180.9,53.8v-14h-3.8v11.3L170.8,41c-0.6-1-1.5-1.4-2.9-1.4   c-1.8,0-2.8,1-2.8,2.6v14.1h3.8V44.8l6.4,10.1c0.9,1.4,2,1.5,2.9,1.5C179.8,56.4,180.9,55.4,180.9,53.8"
   id="path1293"
   style="fill:#113b6a;fill-opacity:1" />
</g>
</svg>
